<svg width="24" height="24" viewBox="0 0 24 24" fill="none" xmlns="http://www.w3.org/2000/svg">
<path d="M6.00043 14C6.00043 16.5964 6.84256 19.1228 8.40043 21.2C8.71869 21.6243 9.19248 21.9049 9.71758 21.9799C10.2427 22.0549 10.7761 21.9183 11.2004 21.6C11.6248 21.2817 11.9053 20.8079 11.9803 20.2828C12.0553 19.7577 11.9187 19.2243 11.6004 18.8C10.5619 17.4152 10.0004 15.731 10.0004 14M8.00043 6V14M11.0004 6C14.0418 6.07835 17.0143 5.0875 19.4004 3.2C19.549 3.08857 19.7257 3.02072 19.9106 3.00404C20.0956 2.98736 20.2815 3.02252 20.4476 3.10557C20.6137 3.18863 20.7534 3.31629 20.8511 3.47427C20.9487 3.63225 21.0004 3.81429 21.0004 4V16C21.0004 16.1857 20.9487 16.3678 20.8511 16.5257C20.7534 16.6837 20.6137 16.8114 20.4476 16.8944C20.2815 16.9775 20.0956 17.0126 19.9106 16.996C19.7257 16.9793 19.549 16.9114 19.4004 16.8C17.0143 14.9125 14.0418 13.9217 11.0004 14H5.00043C4.46999 14 3.96129 13.7893 3.58621 13.4142C3.21114 13.0391 3.00043 12.5304 3.00043 12V8C3.00043 7.46957 3.21114 6.96086 3.58621 6.58579C3.96129 6.21071 4.46999 6 5.00043 6H11.0004Z" stroke="currentColor" stroke-width="1.5" stroke-linecap="round" stroke-linejoin="round"/>
</svg>
