<svg width="24" height="24" viewBox="0 0 24 24" fill="none" xmlns="http://www.w3.org/2000/svg">
<path d="M4.00061 8V19C4.00061 19.5304 4.21132 20.0391 4.5864 20.4142C4.96147 20.7893 5.47018 21 6.00061 21H18.0006C18.531 21 19.0398 20.7893 19.4148 20.4142C19.7899 20.0391 20.0006 19.5304 20.0006 19V8M10.0006 12H14.0006M3.00061 3H21.0006C21.5529 3 22.0006 3.44772 22.0006 4V7C22.0006 7.55228 21.5529 8 21.0006 8H3.00061C2.44833 8 2.00061 7.55228 2.00061 7V4C2.00061 3.44772 2.44833 3 3.00061 3Z" stroke="currentColor" stroke-width="1.5" stroke-linecap="round" stroke-linejoin="round"/>
</svg>
