<svg width="24" height="24" viewBox="0 0 24 24" fill="none" xmlns="http://www.w3.org/2000/svg">
<path d="M10.9996 7L7.99965 12H11.9996L8.99965 17M14.8556 6H15.9996C16.5301 6 17.0388 6.21071 17.4139 6.58579C17.7889 6.96086 17.9996 7.46957 17.9996 8V16C17.9996 16.5304 17.7889 17.0391 17.4139 17.4142C17.0388 17.7893 16.5301 18 15.9996 18H13.0646M21.9996 14V10M5.13965 18H3.99965C3.46922 18 2.96051 17.7893 2.58544 17.4142C2.21036 17.0391 1.99965 16.5304 1.99965 16V8C1.99965 7.46957 2.21036 6.96086 2.58544 6.58579C2.96051 6.21071 3.46922 6 3.99965 6H6.93565" stroke="currentColor" stroke-width="1.5" stroke-linecap="round" stroke-linejoin="round"/>
</svg>
