<svg width="24" height="24" viewBox="0 0 24 24" fill="none" xmlns="http://www.w3.org/2000/svg">
<path d="M12.0007 9.7998V19.9998M12.0007 9.7998C12.0007 8.11965 12.0007 7.27992 12.3277 6.63818C12.6153 6.0737 13.0739 5.6146 13.6384 5.32698C14.2801 5 15.1203 5 16.8005 5H19.4005C19.9605 5 20.2408 5 20.4547 5.10899C20.6428 5.20487 20.7954 5.35774 20.8913 5.5459C21.0003 5.75981 21.0007 6.04004 21.0007 6.6001V15.4001C21.0007 15.9601 21.0003 16.2398 20.8913 16.4537C20.7954 16.6419 20.6432 16.7952 20.455 16.8911C20.2413 17 19.9617 17 19.4027 17H16.57C15.6308 17 15.1603 17 14.7341 17.1295C14.3567 17.2441 14.0063 17.4317 13.7017 17.6821C13.3575 17.965 13.0967 18.3557 12.5757 19.1372L12.0007 19.9998M12.0007 9.7998C12.0007 8.11965 12.0005 7.27992 11.6735 6.63818C11.3859 6.0737 10.9269 5.6146 10.3624 5.32698C9.72071 5 8.88044 5 7.20028 5H4.60028C4.04023 5 3.76048 5 3.54657 5.10899C3.35841 5.20487 3.20554 5.35774 3.10966 5.5459C3.00067 5.75981 3.00067 6.04004 3.00067 6.6001V15.4001C3.00067 15.9601 3.00067 16.2398 3.10966 16.4537C3.20554 16.6419 3.35841 16.7952 3.54657 16.8911C3.76027 17 4.03968 17 4.59864 17H7.4314C8.37061 17 8.84009 17 9.26636 17.1295C9.64373 17.2441 9.99579 17.4317 10.3005 17.6821C10.6432 17.9638 10.9024 18.3526 11.4192 19.1277L12.0007 19.9998" stroke="currentColor" stroke-width="1.5" stroke-linecap="round" stroke-linejoin="round"/>
</svg>
