<svg width="24" height="24" viewBox="0 0 24 24" fill="none" xmlns="http://www.w3.org/2000/svg">
<path d="M12.0002 22V12M12.0002 12L3.29024 7M12.0002 12L20.7102 7M7.50024 4.27L16.5002 9.42M11.0002 21.73C11.3043 21.9055 11.6492 21.998 12.0002 21.998C12.3513 21.998 12.6962 21.9055 13.0002 21.73L20.0002 17.73C20.304 17.5546 20.5563 17.3025 20.7318 16.9988C20.9073 16.6952 20.9999 16.3507 21.0002 16V8C20.9999 7.64928 20.9073 7.30481 20.7318 7.00116C20.5563 6.69752 20.304 6.44536 20.0002 6.27L13.0002 2.27C12.6962 2.09446 12.3513 2.00205 12.0002 2.00205C11.6492 2.00205 11.3043 2.09446 11.0002 2.27L4.00024 6.27C3.69651 6.44536 3.44422 6.69752 3.26871 7.00116C3.09319 7.30481 3.0006 7.64928 3.00024 8V16C3.0006 16.3507 3.09319 16.6952 3.26871 16.9988C3.44422 17.3025 3.69651 17.5546 4.00024 17.73L11.0002 21.73Z" stroke="currentColor" stroke-width="1.5" stroke-linecap="round" stroke-linejoin="round"/>
</svg>
