<svg width="24" height="24" viewBox="0 0 24 24" fill="none" xmlns="http://www.w3.org/2000/svg">
<path d="M15.9999 2L21.9999 8M21.9999 2L15.9999 8M13.8319 16.568C14.0385 16.6628 14.2711 16.6845 14.4916 16.6294C14.7121 16.5744 14.9073 16.4458 15.0449 16.265L15.3999 15.8C15.5862 15.5516 15.8278 15.35 16.1055 15.2111C16.3832 15.0723 16.6894 15 16.9999 15H19.9999C20.5304 15 21.0391 15.2107 21.4142 15.5858C21.7892 15.9609 21.9999 16.4696 21.9999 17V20C21.9999 20.5304 21.7892 21.0391 21.4142 21.4142C21.0391 21.7893 20.5304 22 19.9999 22C15.226 22 10.6477 20.1036 7.27202 16.7279C3.89636 13.3523 1.99994 8.7739 1.99994 4C1.99994 3.46957 2.21065 2.96086 2.58573 2.58579C2.9608 2.21071 3.46951 2 3.99994 2H6.99994C7.53037 2 8.03908 2.21071 8.41415 2.58579C8.78922 2.96086 8.99994 3.46957 8.99994 4V7C8.99994 7.31049 8.92765 7.61672 8.78879 7.89443C8.64994 8.17214 8.44833 8.41371 8.19994 8.6L7.73194 8.951C7.54836 9.09118 7.41896 9.29059 7.36573 9.51535C7.3125 9.74012 7.33872 9.97638 7.43994 10.184C8.80662 12.9599 11.0544 15.2048 13.8319 16.568Z" stroke="currentColor" stroke-width="1.5" stroke-linecap="round" stroke-linejoin="round"/>
</svg>
