<svg width="24" height="24" viewBox="0 0 24 24" fill="none" xmlns="http://www.w3.org/2000/svg">
<path d="M13.9978 4C14.3586 3.99999 14.7127 4.09759 15.0225 4.28244C15.3323 4.46729 15.5864 4.73251 15.7578 5.05L16.2438 5.95C16.4152 6.26749 16.6692 6.53271 16.9791 6.71756C17.2889 6.90241 17.643 7.00001 18.0038 7H20.0008C20.5312 7 21.0399 7.21071 21.415 7.58579C21.7901 7.96086 22.0008 8.46957 22.0008 9V18C22.0008 18.5304 21.7901 19.0391 21.415 19.4142C21.0399 19.7893 20.5312 20 20.0008 20H4.00079C3.47036 20 2.96165 19.7893 2.58658 19.4142C2.21151 19.0391 2.00079 18.5304 2.00079 18V9C2.00079 8.46957 2.21151 7.96086 2.58658 7.58579C2.96165 7.21071 3.47036 7 4.00079 7H5.99779C6.35821 7.00002 6.71194 6.90264 7.02157 6.71817C7.33121 6.53369 7.58523 6.26897 7.75679 5.952L8.24579 5.048C8.41735 4.73103 8.67138 4.46631 8.98101 4.28183C9.29064 4.09736 9.64437 3.99998 10.0048 4H13.9978Z" stroke="currentColor" stroke-width="1.5" stroke-linecap="round" stroke-linejoin="round"/>
<path d="M12.0008 16C13.6576 16 15.0008 14.6569 15.0008 13C15.0008 11.3431 13.6576 10 12.0008 10C10.3439 10 9.00079 11.3431 9.00079 13C9.00079 14.6569 10.3439 16 12.0008 16Z" stroke="currentColor" stroke-width="1.5" stroke-linecap="round" stroke-linejoin="round"/>
</svg>
