<svg width="24" height="24" viewBox="0 0 24 24" fill="none" xmlns="http://www.w3.org/2000/svg">
<path d="M2.00085 8V6C2.00085 5.46957 2.21157 4.96086 2.58664 4.58579C2.96171 4.21071 3.47042 4 4.00085 4H20.0009C20.5313 4 21.04 4.21071 21.4151 4.58579C21.7901 4.96086 22.0009 5.46957 22.0009 6V18C22.0009 18.5304 21.7901 19.0391 21.4151 19.4142C21.04 19.7893 20.5313 20 20.0009 20H14.0009M2.00085 12C4.04823 12.2173 5.95922 13.1299 7.41507 14.5858C8.87091 16.0416 9.78359 17.9526 10.0009 20M2.00085 16C2.99351 16.1849 3.90693 16.666 4.62091 17.3799C5.33489 18.0939 5.81598 19.0073 6.00085 20M2.00085 20H2.01085" stroke="currentColor" stroke-width="1.5" stroke-linecap="round" stroke-linejoin="round"/>
</svg>
