<svg width="24" height="24" viewBox="0 0 24 24" fill="none" xmlns="http://www.w3.org/2000/svg">
<path d="M14.9999 9L10.9999 13L8.99994 11M7.12351 18.7012L5.59955 19.9203C4.76738 20.5861 4.35109 20.9191 4.00092 20.9195C3.69637 20.9198 3.40838 20.7813 3.2184 20.5433C2.99994 20.2696 2.99994 19.7369 2.99994 18.6712V7.2002C2.99994 6.08009 2.99994 5.51962 3.21793 5.0918C3.40967 4.71547 3.71541 4.40973 4.09174 4.21799C4.51956 4 5.08003 4 6.20013 4H17.8001C18.9202 4 19.48 4 19.9078 4.21799C20.2841 4.40973 20.5904 4.71547 20.7822 5.0918C20.9999 5.5192 20.9999 6.07899 20.9999 7.19691V14.8036C20.9999 15.9215 20.9999 16.4805 20.7822 16.9079C20.5904 17.2842 20.2843 17.5905 19.908 17.7822C19.4806 18 18.9214 18 17.8035 18H9.1225C8.70646 18 8.49822 18 8.29926 18.0408C8.12273 18.0771 7.9521 18.1368 7.79162 18.2188C7.61143 18.3108 7.44957 18.4403 7.12716 18.6982L7.12351 18.7012Z" stroke="currentColor" stroke-width="1.5" stroke-linecap="round" stroke-linejoin="round"/>
</svg>
