<svg width="24" height="24" viewBox="0 0 24 24" fill="none" xmlns="http://www.w3.org/2000/svg">
<path d="M12.0007 14V11M12.0007 11V8M12.0007 11H9.00067M12.0007 11H15.0007M7.12424 18.7012L5.60028 19.9203C4.76811 20.5861 4.35182 20.9191 4.00165 20.9195C3.69711 20.9198 3.40912 20.7813 3.21913 20.5433C3.00067 20.2696 3.00067 19.7369 3.00067 18.6712V7.2002C3.00067 6.08009 3.00067 5.51962 3.21866 5.0918C3.41041 4.71547 3.71614 4.40973 4.09247 4.21799C4.52029 4 5.08076 4 6.20087 4H17.8009C18.921 4 19.4807 4 19.9086 4.21799C20.2849 4.40973 20.5912 4.71547 20.7829 5.0918C21.0007 5.5192 21.0007 6.07899 21.0007 7.19691V14.8036C21.0007 15.9215 21.0007 16.4805 20.7829 16.9079C20.5912 17.2842 20.285 17.5905 19.9087 17.7822C19.4813 18 18.9222 18 17.8042 18H9.12323C8.70719 18 8.49896 18 8.29999 18.0408C8.12346 18.0771 7.95283 18.1368 7.79235 18.2188C7.61216 18.3108 7.45031 18.4403 7.12789 18.6982L7.12424 18.7012Z" stroke="currentColor" stroke-width="1.5" stroke-linecap="round" stroke-linejoin="round"/>
</svg>
