<svg width="24" height="24" viewBox="0 0 24 24" fill="none" xmlns="http://www.w3.org/2000/svg">
<path d="M9.99957 14L11.9996 12M11.9996 12L13.9995 10M11.9996 12L9.99957 10M11.9996 12L13.9995 14M11.9992 21C10.3641 21 8.83083 20.5639 7.50934 19.8018L7.50521 19.7994C7.37741 19.7257 7.31326 19.6887 7.2525 19.6719C7.19535 19.6561 7.14432 19.6507 7.08516 19.6548C7.02171 19.6591 6.95495 19.6813 6.82362 19.7251L4.51715 20.4939L4.51112 20.4962C4.02662 20.6577 3.78439 20.7384 3.62262 20.6807C3.48126 20.6303 3.36937 20.5187 3.31896 20.3774C3.26114 20.2152 3.34225 19.9719 3.50446 19.4853L3.50543 19.4823L4.27425 17.1758C4.31818 17.044 4.3396 16.9781 4.34395 16.9146C4.34799 16.8554 4.34358 16.804 4.32778 16.7469C4.31103 16.6863 4.27405 16.6221 4.20072 16.495L4.19777 16.4899C3.43562 15.1684 2.99957 13.6351 2.99957 12C2.99957 7.02944 7.02901 3 11.9996 3C16.9701 3 20.9996 7.02944 20.9996 12C20.9996 16.9706 16.9698 21 11.9992 21Z" stroke="currentColor" stroke-width="1.5" stroke-linecap="round" stroke-linejoin="round"/>
</svg>
