<svg width="24" height="24" viewBox="0 0 24 24" fill="none" xmlns="http://www.w3.org/2000/svg">
<path d="M9.33735 15.9905C12.4938 15.8151 14.9992 13.2003 14.9992 10C14.9992 6.68629 12.3129 4 8.99921 4C5.6855 4 2.99921 6.68629 2.99921 10C2.99921 11.1807 3.34014 12.2817 3.92909 13.21L3.50507 14.482L3.50439 14.4839C3.34198 14.9711 3.26074 15.2149 3.31859 15.3771C3.369 15.5184 3.48089 15.6299 3.62225 15.6803C3.78393 15.7379 4.02595 15.6573 4.5099 15.4959L4.51678 15.4939L5.78925 15.0698C6.71751 15.6588 7.81856 15.9998 8.99927 15.9998C9.11272 15.9998 9.22544 15.9967 9.33735 15.9905ZM9.33735 15.9905V15.9905ZM9.33735 15.9905C10.1583 18.3259 12.3833 20.0002 14.9994 20.0002C16.1801 20.0002 17.2809 19.6588 18.2091 19.0698L19.4812 19.4939L19.4837 19.4944C19.9709 19.6567 20.215 19.7381 20.3772 19.6803C20.5186 19.6299 20.6291 19.5184 20.6795 19.3771C20.7374 19.2146 20.6564 18.9706 20.4936 18.4821L20.0695 17.21L20.2115 16.9746C20.713 16.0979 20.9987 15.0823 20.9987 14C20.9987 10.6863 18.3129 8 14.9992 8L14.7746 8.00414L14.6613 8.00967" stroke="currentColor" stroke-width="1.5" stroke-linecap="round" stroke-linejoin="round"/>
</svg>
