<svg width="24" height="24" viewBox="0 0 24 24" fill="none" xmlns="http://www.w3.org/2000/svg">
<path d="M15.0005 10L11.0005 14L9.00049 12M12.0006 21C10.3655 21 8.83223 20.5639 7.51074 19.8018C7.38019 19.7265 7.31482 19.6888 7.25342 19.6719C7.19626 19.6561 7.14524 19.6507 7.08608 19.6548C7.02302 19.6591 6.95779 19.6808 6.82808 19.7241L4.51855 20.4939L4.51673 20.4947C4.02941 20.6572 3.78529 20.7386 3.62305 20.6807C3.48169 20.6303 3.37028 20.5187 3.31987 20.3774C3.26206 20.2152 3.34317 19.9719 3.50538 19.4853L3.50635 19.4823L4.27517 17.1758L4.277 17.171C4.31985 17.0424 4.34154 16.9773 4.34584 16.9146C4.34988 16.8554 4.34449 16.804 4.3287 16.7469C4.31195 16.6863 4.27497 16.6221 4.20163 16.495L4.19868 16.4899C3.43653 15.1684 3.00049 13.6351 3.00049 12C3.00049 7.02944 7.02993 3 12.0005 3C16.9711 3 21.0005 7.02944 21.0005 12C21.0005 16.9706 16.9712 21 12.0006 21Z" stroke="currentColor" stroke-width="1.5" stroke-linecap="round" stroke-linejoin="round"/>
</svg>
