<svg width="24" height="24" viewBox="0 0 24 24" fill="none" xmlns="http://www.w3.org/2000/svg">
<path d="M8.99908 12H14.9991M11.9987 21C10.3636 21 8.83034 20.5639 7.50885 19.8018L7.50472 19.7994C7.37692 19.7257 7.31277 19.6887 7.25201 19.6719C7.19486 19.6561 7.14384 19.6507 7.08468 19.6548C7.02122 19.6591 6.95446 19.6813 6.82313 19.7251L4.51666 20.4939L4.51063 20.4962C4.02613 20.6577 3.7839 20.7384 3.62213 20.6807C3.48077 20.6303 3.36888 20.5187 3.31847 20.3774C3.26066 20.2152 3.34176 19.9719 3.50398 19.4853L3.50494 19.4823L4.27377 17.1758C4.31769 17.044 4.33911 16.9781 4.34346 16.9146C4.3475 16.8554 4.34309 16.804 4.32729 16.7469C4.31054 16.6863 4.27356 16.6221 4.20023 16.495L4.19728 16.4899C3.43513 15.1684 2.99908 13.6351 2.99908 12C2.99908 7.02944 7.02852 3 11.9991 3C16.9696 3 20.9991 7.02944 20.9991 12C20.9991 16.9706 16.9693 21 11.9987 21Z" stroke="currentColor" stroke-width="1.5" stroke-linecap="round" stroke-linejoin="round"/>
</svg>
