<svg width="24" height="24" viewBox="0 0 24 24" fill="none" xmlns="http://www.w3.org/2000/svg">
<path d="M5.60046 19.9203L7.12443 18.7012L7.13563 18.6926C7.45334 18.4384 7.61366 18.3101 7.79254 18.2188C7.95301 18.1368 8.12413 18.0771 8.30066 18.0408C8.49963 18 8.70689 18 9.12292 18H17.8039C18.9219 18 19.4815 18 19.9089 17.7822C20.2852 17.5905 20.5913 17.2842 20.7831 16.9079C21.0009 16.4805 21.0009 15.9215 21.0009 14.8036V7.19691C21.0009 6.07899 21.0009 5.5192 20.7831 5.0918C20.5913 4.71547 20.2846 4.40973 19.9083 4.21799C19.4804 4 18.9212 4 17.8011 4H6.20105C5.08094 4 4.52047 4 4.09265 4.21799C3.71633 4.40973 3.41059 4.71547 3.21884 5.0918C3.00085 5.51962 3.00085 6.08009 3.00085 7.2002V18.6712C3.00085 19.7369 3.00085 20.2696 3.21931 20.5433C3.4093 20.7813 3.69729 20.9198 4.00183 20.9195C4.35201 20.9191 4.76829 20.5861 5.60046 19.9203Z" stroke="currentColor" stroke-width="1.5" stroke-linecap="round" stroke-linejoin="round"/>
</svg>
