<svg width="24" height="24" viewBox="0 0 24 24" fill="none" xmlns="http://www.w3.org/2000/svg">
<path d="M12.0001 15V12M12.0001 12V9M12.0001 12H9.00012M12.0001 12H15.0001M12.0003 21C10.3651 21 8.83187 20.5639 7.51038 19.8018C7.37982 19.7265 7.31446 19.6888 7.25305 19.6719C7.1959 19.6561 7.14487 19.6507 7.08571 19.6548C7.02265 19.6591 6.95742 19.6808 6.82772 19.7241L4.51819 20.4939L4.51637 20.4947C4.02904 20.6572 3.78492 20.7386 3.62268 20.6807C3.48132 20.6303 3.36991 20.5187 3.31951 20.3774C3.26169 20.2152 3.3428 19.9719 3.50501 19.4853L3.50598 19.4823L4.2748 17.1758L4.27663 17.171C4.31949 17.0424 4.34118 16.9773 4.34547 16.9146C4.34952 16.8554 4.34413 16.804 4.32833 16.7469C4.31158 16.6863 4.2746 16.6221 4.20127 16.495L4.19831 16.4899C3.43617 15.1684 3.00012 13.6351 3.00012 12C3.00012 7.02944 7.02956 3 12.0001 3C16.9707 3 21.0001 7.02944 21.0001 12C21.0001 16.9706 16.9708 21 12.0003 21Z" stroke="currentColor" stroke-width="1.5" stroke-linecap="round" stroke-linejoin="round"/>
</svg>
