<svg width="24" height="24" viewBox="0 0 24 24" fill="none" xmlns="http://www.w3.org/2000/svg">
<path d="M17.5 19H8.99998C7.70184 18.9997 6.42937 18.6384 5.32475 17.9565C4.22014 17.2746 3.3269 16.2989 2.74485 15.1386C2.1628 13.9783 1.91487 12.6789 2.02877 11.3858C2.14267 10.0927 2.61391 8.8567 3.38982 7.81598C4.16574 6.77525 5.21577 5.97079 6.42258 5.49248C7.62938 5.01418 8.94542 4.88087 10.2236 5.10746C11.5018 5.33405 12.6919 5.91161 13.6607 6.7756C14.6296 7.63959 15.3391 8.75598 15.71 10H17.5C18.6935 10 19.838 10.4741 20.682 11.318C21.5259 12.1619 22 13.3065 22 14.5C22 15.6935 21.5259 16.8381 20.682 17.682C19.838 18.5259 18.6935 19 17.5 19Z" stroke="currentColor" stroke-width="1.5" stroke-linecap="round" stroke-linejoin="round"/>
</svg>
