<svg width="24" height="24" viewBox="0 0 24 24" fill="none" xmlns="http://www.w3.org/2000/svg">
<g clip-path="url(#clip0_10_2160)">
<path d="M10.0007 15L12.0007 13M12.0007 13L14.0006 11M12.0007 13L10.0007 11M12.0007 13L14.0006 15M23.0007 15C23.0007 12.7909 21.2098 11 19.0007 11C18.977 11 18.9539 11.0002 18.9304 11.0006C18.4454 7.60802 15.5274 5 12.0007 5C9.20402 5 6.79086 6.64004 5.66962 9.01082C3.06274 9.18144 1.00067 11.3498 1.00067 13.9999C1.00067 16.7613 3.23925 19.0001 6.00067 19.0001L19.0007 19C21.2098 19 23.0007 17.2091 23.0007 15Z" stroke="currentColor" stroke-width="1.5" stroke-linecap="round" stroke-linejoin="round"/>
</g>
<defs>
<clipPath id="clip0_10_2160">
<rect width="24" height="24" fill="white"/>
</clipPath>
</defs>
</svg>
