<svg width="24" height="24" viewBox="0 0 24 24" fill="none" xmlns="http://www.w3.org/2000/svg">
<g clip-path="url(#clip0_10_2168)">
<path d="M11.9991 16V10M11.9991 10L8.99908 12M11.9991 10L14.9991 12M22.9991 15C22.9991 12.7909 21.2082 11 18.9991 11C18.9754 11 18.9523 11.0002 18.9288 11.0006C18.4438 7.60802 15.5258 5 11.9991 5C9.20243 5 6.78928 6.64004 5.66803 9.01082C3.06115 9.18144 0.999084 11.3498 0.999084 13.9999C0.999084 16.7613 3.23766 19.0001 5.99908 19.0001L18.9991 19C21.2082 19 22.9991 17.2091 22.9991 15Z" stroke="currentColor" stroke-width="1.5" stroke-linecap="round" stroke-linejoin="round"/>
</g>
<defs>
<clipPath id="clip0_10_2168">
<rect width="24" height="24" fill="white"/>
</clipPath>
</defs>
</svg>
