<svg width="24" height="24" viewBox="0 0 24 24" fill="none" xmlns="http://www.w3.org/2000/svg">
<g clip-path="url(#clip0_10_2145)">
<path d="M19.0008 19H6.00079C3.23937 19 1.00079 16.7614 1.00079 14C1.00079 11.35 3.06242 9.18137 5.6693 9.01074C6.00526 8.30038 6.45812 7.65576 7.00167 7.10107M19.0008 19L5.00079 5M19.0008 19L21.0008 21M10.0008 5.28988C10.6345 5.10128 11.3058 5 12.0008 5C15.5275 5 18.445 7.60802 18.93 11.0006C18.9535 11.0002 18.9781 11 19.0018 11C21.2109 11 23.0003 12.7909 23.0003 15C23.0003 15.9459 22.6728 16.8152 22.1238 17.5" stroke="currentColor" stroke-width="1.5" stroke-linecap="round" stroke-linejoin="round"/>
</g>
<defs>
<clipPath id="clip0_10_2145">
<rect width="24" height="24" fill="white"/>
</clipPath>
</defs>
</svg>
