<svg width="24" height="24" viewBox="0 0 24 24" fill="none" xmlns="http://www.w3.org/2000/svg">
<g clip-path="url(#clip0_10_2162)">
<path d="M12.0005 9V15M12.0005 15L15.0005 13M12.0005 15L9.00049 13M23.0005 15C23.0005 12.7909 21.2096 11 19.0005 11C18.9768 11 18.9537 11.0002 18.9302 11.0006C18.4452 7.60802 15.5272 5 12.0005 5C9.20384 5 6.79068 6.64004 5.66943 9.01082C3.06255 9.18144 1.00049 11.3498 1.00049 13.9999C1.00049 16.7613 3.23906 19.0001 6.00049 19.0001L19.0005 19C21.2096 19 23.0005 17.2091 23.0005 15Z" stroke="currentColor" stroke-width="1.5" stroke-linecap="round" stroke-linejoin="round"/>
</g>
<defs>
<clipPath id="clip0_10_2162">
<rect width="24" height="24" fill="white"/>
</clipPath>
</defs>
</svg>
