<svg width="24" height="24" viewBox="0 0 24 24" fill="none" xmlns="http://www.w3.org/2000/svg">
<path d="M18.0898 10.37C19.0351 10.7224 19.8763 11.3075 20.5356 12.0712C21.1948 12.8349 21.6509 13.7524 21.8616 14.7391C22.0722 15.7257 22.0307 16.7495 21.7409 17.7158C21.451 18.6822 20.9222 19.5598 20.2033 20.2676C19.4843 20.9754 18.5985 21.4905 17.6278 21.7652C16.6571 22.04 15.6327 22.0655 14.6495 21.8395C13.6663 21.6134 12.7559 21.1431 12.0027 20.472C11.2494 19.8009 10.6775 18.9507 10.3398 18M6.99982 6H7.99982V10M15.2538 13.8949L16.2508 13.902L16.2508 17.8901M13.9998 8C13.9998 11.3137 11.3135 14 7.99982 14C4.68612 14 1.99982 11.3137 1.99982 8C1.99982 4.68629 4.68612 2 7.99982 2C11.3135 2 13.9998 4.68629 13.9998 8Z" stroke="currentColor" stroke-width="1.5" stroke-linecap="round" stroke-linejoin="round"/>
</svg>
