<svg width="24" height="24" viewBox="0 0 24 24" fill="none" xmlns="http://www.w3.org/2000/svg">
<path d="M8.99957 15V18C8.99957 19.6569 7.65643 21 5.99957 21C4.34272 21 2.99957 19.6569 2.99957 18C2.99957 16.3431 4.34272 15 5.99957 15H8.99957ZM8.99957 15H14.9996M8.99957 15V9M14.9996 15V18C14.9996 19.6569 16.3427 21 17.9996 21C19.6564 21 20.9996 19.6569 20.9996 18C20.9996 16.3431 19.6564 15 17.9996 15H14.9996ZM14.9996 15V9M14.9996 9H8.99957M14.9996 9V6C14.9996 4.34315 16.3427 3 17.9996 3C19.6564 3 20.9996 4.34315 20.9996 6C20.9996 7.65685 19.6564 9 17.9996 9H14.9996ZM8.99957 9V6C8.99957 4.34315 7.65643 3 5.99957 3C4.34272 3 2.99957 4.34315 2.99957 6C2.99957 7.65685 4.34272 9 5.99957 9H8.99957Z" stroke="currentColor" stroke-width="1.5" stroke-linecap="round" stroke-linejoin="round"/>
</svg>
