<svg width="24" height="24" viewBox="0 0 24 24" fill="none" xmlns="http://www.w3.org/2000/svg">
<path d="M15.9998 2V4M6.99976 22V20C6.99976 19.4696 7.21047 18.9609 7.58554 18.5858C7.96061 18.2107 8.46932 18 8.99976 18H14.9998C15.5302 18 16.0389 18.2107 16.414 18.5858C16.789 18.9609 16.9998 19.4696 16.9998 20V22M7.99976 2V4M14.9998 11C14.9998 12.6569 13.6566 14 11.9998 14C10.3429 14 8.99976 12.6569 8.99976 11C8.99976 9.34315 10.3429 8 11.9998 8C13.6566 8 14.9998 9.34315 14.9998 11ZM4.99976 4H18.9998C20.1043 4 20.9998 4.89543 20.9998 6V20C20.9998 21.1046 20.1043 22 18.9998 22H4.99976C3.89519 22 2.99976 21.1046 2.99976 20V6C2.99976 4.89543 3.89519 4 4.99976 4Z" stroke="currentColor" stroke-width="1.5" stroke-linecap="round" stroke-linejoin="round"/>
</svg>
