<svg width="24" height="24" viewBox="0 0 24 24" fill="none" xmlns="http://www.w3.org/2000/svg">
<path d="M12.0001 20V22M12.0001 2V4M17.0001 20V22M17.0001 2V4M2.00012 12H4.00012M2.00012 17H4.00012M2.00012 7H4.00012M20.0001 12H22.0001M20.0001 17H22.0001M20.0001 7H22.0001M7.00012 20V22M7.00012 2V4M6.00012 4H18.0001C19.1047 4 20.0001 4.89543 20.0001 6V18C20.0001 19.1046 19.1047 20 18.0001 20H6.00012C4.89555 20 4.00012 19.1046 4.00012 18V6C4.00012 4.89543 4.89555 4 6.00012 4ZM9.00012 8H15.0001C15.5524 8 16.0001 8.44772 16.0001 9V15C16.0001 15.5523 15.5524 16 15.0001 16H9.00012C8.44784 16 8.00012 15.5523 8.00012 15V9C8.00012 8.44772 8.44784 8 9.00012 8Z" stroke="currentColor" stroke-width="1.5" stroke-linecap="round" stroke-linejoin="round"/>
</svg>
