<svg width="24" height="24" viewBox="0 0 24 24" fill="none" xmlns="http://www.w3.org/2000/svg">
<path d="M8.12085 8.12L12.0009 12M20.0009 4L8.12085 15.88M14.8009 14.8L20.0009 20M9.00085 6C9.00085 7.65685 7.65771 9 6.00085 9C4.344 9 3.00085 7.65685 3.00085 6C3.00085 4.34315 4.344 3 6.00085 3C7.65771 3 9.00085 4.34315 9.00085 6ZM9.00085 18C9.00085 19.6569 7.65771 21 6.00085 21C4.344 21 3.00085 19.6569 3.00085 18C3.00085 16.3431 4.344 15 6.00085 15C7.65771 15 9.00085 16.3431 9.00085 18Z" stroke="currentColor" stroke-width="1.5" stroke-linecap="round" stroke-linejoin="round"/>
</svg>
