<svg width="24" height="24" viewBox="0 0 24 24" fill="none" xmlns="http://www.w3.org/2000/svg">
<path d="M21.9999 12H1.99994M21.9999 12V18C21.9999 18.5304 21.7892 19.0391 21.4142 19.4142C21.0391 19.7893 20.5304 20 19.9999 20H3.99994C3.46951 20 2.9608 19.7893 2.58573 19.4142C2.21065 19.0391 1.99994 18.5304 1.99994 18V12M21.9999 12L18.5499 5.11C18.3844 4.77679 18.1291 4.49637 17.8129 4.30028C17.4967 4.10419 17.132 4.0002 16.7599 4H7.23994C6.86785 4.0002 6.5032 4.10419 6.18698 4.30028C5.87076 4.49637 5.61552 4.77679 5.44994 5.11L1.99994 12M5.99994 16H6.00994M9.99994 16H10.0099" stroke="currentColor" stroke-width="1.5" stroke-linecap="round" stroke-linejoin="round"/>
</svg>
