<svg width="24" height="24" viewBox="0 0 24 24" fill="none" xmlns="http://www.w3.org/2000/svg">
<path d="M17.0006 14V2M9.00059 18.12L10.0006 14H4.17059C3.8601 14 3.55388 13.9277 3.27617 13.7889C2.99846 13.65 2.75689 13.4484 2.57059 13.2C2.3843 12.9516 2.2584 12.6633 2.20285 12.3578C2.14731 12.0523 2.16366 11.7381 2.25059 11.44L4.58059 3.44C4.70176 3.02457 4.9544 2.65964 5.30059 2.4C5.64679 2.14036 6.06785 2 6.50059 2H20.0006C20.531 2 21.0397 2.21071 21.4148 2.58579C21.7899 2.96086 22.0006 3.46957 22.0006 4V12C22.0006 12.5304 21.7899 13.0391 21.4148 13.4142C21.0397 13.7893 20.531 14 20.0006 14H17.2406C16.8685 14.0002 16.5039 14.1042 16.1876 14.3003C15.8714 14.4964 15.6162 14.7768 15.4506 15.11L12.0006 22C11.529 21.9942 11.0649 21.8818 10.6428 21.6714C10.2207 21.461 9.85166 21.1579 9.56319 20.7848C9.27471 20.4117 9.07428 19.9782 8.97686 19.5168C8.87944 19.0554 8.88755 18.5779 9.00059 18.12Z" stroke="currentColor" stroke-width="1.5" stroke-linecap="round" stroke-linejoin="round"/>
</svg>
