<svg width="24" height="24" viewBox="0 0 24 24" fill="none" xmlns="http://www.w3.org/2000/svg">
<path d="M10.7338 5.076C13.0632 4.7984 15.4194 5.29082 17.4427 6.47805C19.4659 7.66528 21.045 9.48208 21.9388 11.651C22.0222 11.8755 22.0222 12.1225 21.9388 12.347C21.5713 13.238 21.0856 14.0755 20.4948 14.837M14.0848 14.158C13.519 14.7045 12.7612 15.0069 11.9746 15C11.188 14.9932 10.4356 14.6777 9.87935 14.1215C9.32313 13.5652 9.00762 12.8128 9.00079 12.0262C8.99395 11.2396 9.29634 10.4818 9.84281 9.916M17.4798 17.499C16.1533 18.2848 14.6733 18.776 13.1402 18.9394C11.6071 19.1028 10.0568 18.9345 8.59444 18.4459C7.13212 17.9573 5.792 17.1599 4.66502 16.1077C3.53804 15.0556 2.65056 13.7734 2.06281 12.348C1.97947 12.1235 1.97947 11.8765 2.06281 11.652C2.94944 9.50186 4.50948 7.69725 6.50881 6.509M2.00081 2L22.0008 22" stroke="currentColor" stroke-width="1.5" stroke-linecap="round" stroke-linejoin="round"/>
</svg>
