<svg width="24" height="24" viewBox="0 0 24 24" fill="none" xmlns="http://www.w3.org/2000/svg">
<path d="M2.06263 12.348C1.97929 12.1235 1.97929 11.8765 2.06263 11.652C2.87433 9.68385 4.25214 8.00103 6.0214 6.81689C7.79065 5.63275 9.87167 5.00061 12.0006 5.00061C14.1296 5.00061 16.2106 5.63275 17.9799 6.81689C19.7491 8.00103 21.1269 9.68385 21.9386 11.652C22.022 11.8765 22.022 12.1235 21.9386 12.348C21.1269 14.3161 19.7491 15.999 17.9799 17.1831C16.2106 18.3672 14.1296 18.9994 12.0006 18.9994C9.87167 18.9994 7.79065 18.3672 6.0214 17.1831C4.25214 15.999 2.87433 14.3161 2.06263 12.348Z" stroke="currentColor" stroke-width="1.5" stroke-linecap="round" stroke-linejoin="round"/>
<path d="M12.0006 15C13.6575 15 15.0006 13.6568 15.0006 12C15.0006 10.3431 13.6575 8.99999 12.0006 8.99999C10.3438 8.99999 9.00063 10.3431 9.00063 12C9.00063 13.6568 10.3438 15 12.0006 15Z" stroke="currentColor" stroke-width="1.5" stroke-linecap="round" stroke-linejoin="round"/>
</svg>
