<svg width="24" height="24" viewBox="0 0 24 24" fill="none" xmlns="http://www.w3.org/2000/svg">
<path d="M9.00024 15H15.0002M13.0002 3.00087C12.9047 3 12.7975 3 12.675 3H8.20044C7.08033 3 6.51986 3 6.09204 3.21799C5.71572 3.40973 5.40998 3.71547 5.21823 4.0918C5.00024 4.51962 5.00024 5.08009 5.00024 6.2002V17.8002C5.00024 18.9203 5.00024 19.4801 5.21823 19.9079C5.40998 20.2842 5.71572 20.5905 6.09204 20.7822C6.51945 21 7.07925 21 8.19719 21L15.8033 21C16.9212 21 17.4802 21 17.9076 20.7822C18.284 20.5905 18.5907 20.2842 18.7825 19.9079C19.0002 19.4805 19.0002 18.9215 19.0002 17.8036V9.32568C19.0002 9.20296 19.0002 9.09561 18.9993 9M13.0002 3.00087C13.2859 3.00347 13.4666 3.01385 13.6391 3.05526C13.8432 3.10425 14.0381 3.18526 14.217 3.29492C14.4188 3.41857 14.5921 3.59182 14.9377 3.9375L18.0632 7.06298C18.4091 7.40889 18.5811 7.58136 18.7048 7.78319C18.8145 7.96214 18.8956 8.15726 18.9446 8.36133C18.986 8.53376 18.9966 8.71451 18.9993 9M13.0002 3.00087V5.8C13.0002 6.9201 13.0002 7.47977 13.2182 7.90759C13.41 8.28392 13.7157 8.59048 14.092 8.78223C14.5194 9 15.0792 9 16.1972 9H18.9993M18.9993 9H19.0004" stroke="currentColor" stroke-width="1.5" stroke-linecap="round" stroke-linejoin="round"/>
</svg>
