<svg width="24" height="24" viewBox="0 0 24 24" fill="none" xmlns="http://www.w3.org/2000/svg">
<path d="M13.9992 2H5.99921C5.46877 2 4.96007 2.21072 4.58499 2.58579C4.20992 2.96086 3.99921 3.46957 3.99921 4V20C3.99921 20.5304 4.20992 21.0391 4.58499 21.4142C4.96007 21.7893 5.46877 22 5.99921 22H17.9992C18.5296 22 19.0383 21.7893 19.4134 21.4142C19.7885 21.0391 19.9992 20.5304 19.9992 20V8M13.9992 2C14.3158 1.99949 14.6293 2.06161 14.9217 2.18277C15.2142 2.30394 15.4798 2.48176 15.7032 2.706L19.2912 6.294C19.516 6.51751 19.6944 6.78335 19.8159 7.07616C19.9374 7.36898 19.9997 7.68297 19.9992 8M13.9992 2V7C13.9992 7.26522 14.1046 7.51957 14.2921 7.70711C14.4796 7.89465 14.734 8 14.9992 8L19.9992 8" stroke="currentColor" stroke-width="1.5" stroke-linecap="round" stroke-linejoin="round"/>
</svg>
