<svg width="24" height="24" viewBox="0 0 24 24" fill="none" xmlns="http://www.w3.org/2000/svg">
<path d="M10.0004 17L12.0004 15M12.0004 15L14.0004 13M12.0004 15L10.0004 13M12.0004 15L14.0004 17M13.0004 3.00087C12.9049 3 12.7977 3 12.6751 3H8.20062C7.08052 3 6.52005 3 6.09222 3.21799C5.7159 3.40973 5.41016 3.71547 5.21841 4.0918C5.00043 4.51962 5.00043 5.08009 5.00043 6.2002V17.8002C5.00043 18.9203 5.00043 19.4801 5.21841 19.9079C5.41016 20.2842 5.7159 20.5905 6.09222 20.7822C6.51963 21 7.07943 21 8.19737 21L15.8035 21C16.9214 21 17.4804 21 17.9078 20.7822C18.2841 20.5905 18.5909 20.2842 18.7827 19.9079C19.0004 19.4805 19.0004 18.9215 19.0004 17.8036V9.32568C19.0004 9.20296 19.0004 9.09561 18.9995 9M13.0004 3.00087C13.2861 3.00347 13.4668 3.01385 13.6393 3.05526C13.8433 3.10425 14.0383 3.18526 14.2172 3.29492C14.419 3.41857 14.5922 3.59182 14.9379 3.9375L18.0634 7.06298C18.4093 7.40889 18.5813 7.58136 18.705 7.78319C18.8146 7.96214 18.8958 8.15726 18.9448 8.36133C18.9862 8.53376 18.9968 8.71451 18.9995 9M13.0004 3.00087V5.8C13.0004 6.9201 13.0004 7.47977 13.2184 7.90759C13.4102 8.28392 13.7159 8.59048 14.0922 8.78223C14.5196 9 15.0794 9 16.1973 9H18.9995M18.9995 9H19.0006" stroke="currentColor" stroke-width="1.5" stroke-linecap="round" stroke-linejoin="round"/>
</svg>
