<svg width="24" height="24" viewBox="0 0 24 24" fill="none" xmlns="http://www.w3.org/2000/svg">
<path d="M14.0004 2H6.00043C5.46999 2 4.96129 2.21071 4.58621 2.58579C4.21114 2.96086 4.00043 3.46957 4.00043 4V20C4.00043 20.5304 4.21114 21.0391 4.58621 21.4142C4.96129 21.7893 5.46999 22 6.00043 22H18.0004C18.5309 22 19.0396 21.7893 19.4146 21.4142C19.7897 21.0391 20.0004 20.5304 20.0004 20V8M14.0004 2C14.317 1.99949 14.6305 2.0616 14.923 2.18277C15.2154 2.30393 15.481 2.48176 15.7044 2.706L19.2924 6.294C19.5173 6.51751 19.6956 6.78334 19.8171 7.07616C19.9386 7.36898 20.0009 7.68297 20.0004 8M14.0004 2V7C14.0004 7.26522 14.1058 7.51957 14.2933 7.70711C14.4809 7.89464 14.7352 8 15.0004 8L20.0004 8M10.0004 12.5L8.00043 15L10.0004 17.5M14.0004 12.5L16.0004 15L14.0004 17.5" stroke="currentColor" stroke-width="1.5" stroke-linecap="round" stroke-linejoin="round"/>
</svg>
