<svg width="24" height="24" viewBox="0 0 24 24" fill="none" xmlns="http://www.w3.org/2000/svg">
<path d="M8.99982 17H14.9998M8.99982 14H14.9998M13.0002 3.00087C12.9047 3 12.7972 3 12.6745 3H8.20002C7.07991 3 6.51944 3 6.09162 3.21799C5.7153 3.40973 5.40956 3.71547 5.21781 4.0918C4.99982 4.51962 4.99982 5.08009 4.99982 6.2002V17.8002C4.99982 18.9203 4.99982 19.4801 5.21781 19.9079C5.40956 20.2842 5.7153 20.5905 6.09162 20.7822C6.51903 21 7.07883 21 8.19676 21L15.8029 21C16.9208 21 17.4798 21 17.9072 20.7822C18.2835 20.5905 18.5903 20.2842 18.7821 19.9079C18.9998 19.4805 18.9998 18.9215 18.9998 17.8036V9.32568C18.9998 9.20302 18.9997 9.09553 18.9988 9M13.0002 3.00087C13.2857 3.00348 13.4655 3.01407 13.638 3.05547C13.8421 3.10446 14.0377 3.18526 14.2166 3.29492C14.4184 3.41857 14.5916 3.59181 14.9373 3.9375L18.0628 7.06298C18.4087 7.40889 18.5807 7.58136 18.7044 7.78319C18.814 7.96214 18.8952 8.15726 18.9442 8.36133C18.9856 8.53379 18.9962 8.71454 18.9988 9M13.0002 3.00087L12.9998 5.80021C12.9998 6.92031 12.9998 7.48015 13.2178 7.90797C13.4096 8.2843 13.7153 8.59048 14.0916 8.78223C14.519 9 15.0788 9 16.1967 9H18.9988" stroke="currentColor" stroke-width="1.5" stroke-linecap="round" stroke-linejoin="round"/>
</svg>
