<svg width="24" height="24" viewBox="0 0 24 24" fill="none" xmlns="http://www.w3.org/2000/svg">
<path d="M8.99947 6H9.33633C9.58092 6 9.70331 6 9.8184 6.02763C9.92043 6.05213 10.0184 6.09263 10.1079 6.14746C10.2087 6.20928 10.2954 6.29591 10.4682 6.46875L13.531 9.53149C13.7039 9.70444 13.7899 9.79044 13.8517 9.89135C13.9066 9.98082 13.9476 10.0786 13.9721 10.1807C13.9995 10.2946 13.9995 10.4155 13.9995 10.6552V18M8.99947 6H4.59908C4.03902 6 3.75928 6 3.54536 6.10899C3.3572 6.20487 3.20433 6.35774 3.10846 6.5459C2.99947 6.75981 2.99947 7.04004 2.99947 7.6001V19.4001C2.99947 19.9601 2.99947 20.2398 3.10846 20.4537C3.20433 20.6419 3.3572 20.7952 3.54536 20.8911C3.75907 21 4.03849 21 4.59746 21L12.4005 21C12.9595 21 13.2399 21 13.4536 20.8911C13.6418 20.7952 13.7942 20.6421 13.8901 20.4539C13.9991 20.24 13.9995 19.9599 13.9995 19.3999V18M8.99947 6V9.4C8.99947 9.96005 8.99947 10.2399 9.10846 10.4538C9.20433 10.642 9.3572 10.7952 9.54536 10.8911C9.75907 11 10.0385 11 10.5974 11H13.9991M9.99947 6.0001V4.6001C9.99947 4.04005 9.99947 3.75981 10.1085 3.5459C10.2043 3.35774 10.3572 3.20487 10.5454 3.10899C10.7593 3 11.039 3 11.5991 3H15.9995M15.9995 3H16.3363C16.5809 3 16.7033 3 16.8184 3.02763C16.9204 3.05213 17.0184 3.09263 17.1079 3.14746C17.2087 3.20928 17.2954 3.29592 17.4682 3.46875L20.531 6.53149C20.7039 6.70444 20.7899 6.79044 20.8517 6.89135C20.9066 6.98082 20.9476 7.07863 20.9721 7.18066C20.9995 7.29458 20.9995 7.41552 20.9995 7.65515V16.3999C20.9995 16.9599 20.9991 17.24 20.8901 17.4539C20.7942 17.6421 20.6424 17.7952 20.4542 17.8911C20.2405 18 19.9605 18 19.4015 18H13.9995M15.9995 3V6.4C15.9995 6.96005 15.9995 7.23988 16.1085 7.4538C16.2043 7.64196 16.3572 7.79524 16.5454 7.89111C16.7591 8 17.0385 8 17.5974 8H20.9991" stroke="currentColor" stroke-width="1.5" stroke-linecap="round" stroke-linejoin="round"/>
</svg>
