<svg width="24" height="24" viewBox="0 0 24 24" fill="none" xmlns="http://www.w3.org/2000/svg">
<path d="M9.00061 15L11.0006 17L15.0006 13M13.0006 3.00087C12.9051 3 12.7979 3 12.6753 3H8.20081C7.0807 3 6.52023 3 6.09241 3.21799C5.71608 3.40973 5.41034 3.71547 5.2186 4.0918C5.00061 4.51962 5.00061 5.08009 5.00061 6.2002V17.8002C5.00061 18.9203 5.00061 19.4801 5.2186 19.9079C5.41034 20.2842 5.71608 20.5905 6.09241 20.7822C6.51982 21 7.07961 21 8.19755 21L15.8037 21C16.9216 21 17.4806 21 17.908 20.7822C18.2843 20.5905 18.5911 20.2842 18.7828 19.9079C19.0006 19.4805 19.0006 18.9215 19.0006 17.8036V9.32568C19.0006 9.20296 19.0006 9.09561 18.9997 9M13.0006 3.00087C13.2862 3.00347 13.4669 3.01385 13.6395 3.05526C13.8435 3.10425 14.0385 3.18526 14.2174 3.29492C14.4192 3.41857 14.5924 3.59182 14.9381 3.9375L18.0636 7.06298C18.4095 7.40889 18.5815 7.58136 18.7052 7.78319C18.8148 7.96214 18.896 8.15726 18.9449 8.36133C18.9863 8.53376 18.997 8.71451 18.9997 9M13.0006 3.00087V5.8C13.0006 6.9201 13.0006 7.47977 13.2186 7.90759C13.4103 8.28392 13.7161 8.59048 14.0924 8.78223C14.5198 9 15.0796 9 16.1975 9H18.9997M18.9997 9H19.0008" stroke="currentColor" stroke-width="1.5" stroke-linecap="round" stroke-linejoin="round"/>
</svg>
