<svg width="24" height="24" viewBox="0 0 24 24" fill="none" xmlns="http://www.w3.org/2000/svg">
<path d="M14.999 18.0004L13.3414 16.3428M13 3.00087C12.9045 3 12.797 3 12.6744 3H8.19984C7.07974 3 6.51927 3 6.09145 3.21799C5.71512 3.40973 5.40938 3.71547 5.21764 4.0918C4.99965 4.51962 4.99965 5.08009 4.99965 6.2002V17.8002C4.99965 18.9203 4.99965 19.4801 5.21764 19.9079C5.40938 20.2842 5.71512 20.5905 6.09145 20.7822C6.51885 21 7.07865 21 8.19659 21L15.8027 21C16.9207 21 17.4796 21 17.907 20.7822C18.2834 20.5905 18.5901 20.2842 18.7819 19.9079C18.9996 19.4805 18.9996 18.9215 18.9996 17.8036V9.32568C18.9996 9.20302 18.9995 9.09553 18.9987 9M13 3.00087C13.2855 3.00348 13.4654 3.01407 13.6378 3.05547C13.8419 3.10446 14.0375 3.18526 14.2164 3.29492C14.4182 3.41857 14.5915 3.59181 14.9371 3.9375L18.0626 7.06298C18.4085 7.40889 18.5805 7.58136 18.7042 7.78319C18.8139 7.96214 18.895 8.15726 18.944 8.36133C18.9854 8.53379 18.9961 8.71454 18.9987 9M13 3.00087L12.9996 5.80021C12.9996 6.92031 12.9996 7.48015 13.2176 7.90797C13.4094 8.2843 13.7151 8.59048 14.0914 8.78223C14.5188 9 15.0787 9 16.1966 9H18.9987M11.4996 17C10.1189 17 8.99965 15.8807 8.99965 14.5C8.99965 13.1193 10.1189 12 11.4996 12C12.8804 12 13.9996 13.1193 13.9996 14.5C13.9996 15.8807 12.8804 17 11.4996 17Z" stroke="currentColor" stroke-width="1.5" stroke-linecap="round" stroke-linejoin="round"/>
</svg>
