<svg width="24" height="24" viewBox="0 0 24 24" fill="none" xmlns="http://www.w3.org/2000/svg">
<path d="M14.0006 2H6.00061C5.47018 2 4.96147 2.21071 4.5864 2.58579C4.21132 2.96086 4.00061 3.46957 4.00061 4V20C4.00061 20.5304 4.21132 21.0391 4.5864 21.4142C4.96147 21.7893 5.47018 22 6.00061 22H18.0006C18.531 22 19.0398 21.7893 19.4148 21.4142C19.7899 21.0391 20.0006 20.5304 20.0006 20V8M14.0006 2C14.3172 1.99949 14.6307 2.0616 14.9231 2.18277C15.2156 2.30393 15.4812 2.48176 15.7046 2.706L19.2926 6.294C19.5175 6.51751 19.6958 6.78334 19.8173 7.07616C19.9388 7.36898 20.0011 7.68297 20.0006 8M14.0006 2V7C14.0006 7.26522 14.106 7.51957 14.2935 7.70711C14.481 7.89464 14.7354 8 15.0006 8L20.0006 8M20.0006 17L18.7046 15.704C18.2527 15.2521 17.6397 14.9983 17.0006 14.9983C16.3615 14.9983 15.7486 15.2521 15.2966 15.704L9.00061 22M12.0006 12C12.0006 13.1046 11.1052 14 10.0006 14C8.89604 14 8.00061 13.1046 8.00061 12C8.00061 10.8954 8.89604 10 10.0006 10C11.1052 10 12.0006 10.8954 12.0006 12Z" stroke="currentColor" stroke-width="1.5" stroke-linecap="round" stroke-linejoin="round"/>
</svg>
