<svg width="24" height="24" viewBox="0 0 24 24" fill="none" xmlns="http://www.w3.org/2000/svg">
<path d="M5.99928 11.0002V6.2002C5.99928 5.08009 5.99928 4.51962 6.21727 4.0918C6.40902 3.71547 6.71476 3.40973 7.09108 3.21799C7.5189 3 8.07937 3 9.19948 3H13.674C13.7966 3 13.9038 3 13.9993 3.00087M19.9983 9C19.9993 9.09561 19.9993 9.20296 19.9993 9.32568V17.8036C19.9993 18.9215 19.9993 19.4805 19.7815 19.9079C19.5898 20.2842 19.2832 20.5905 18.9069 20.7822C18.4795 21 17.9203 21 16.8023 21L12.9993 21M19.9983 9C19.9956 8.71451 19.985 8.53376 19.9436 8.36133C19.8946 8.15726 19.8135 7.96214 19.7038 7.7832C19.5802 7.58136 19.4082 7.40889 19.0623 7.06298L15.9368 3.9375C15.5911 3.59182 15.4178 3.41857 15.2161 3.29492C15.0371 3.18526 14.8422 3.10425 14.6381 3.05526C14.4656 3.01385 14.2849 3.00347 13.9993 3.00087M19.9983 9H19.9995M19.9983 9H17.1962C16.0783 9 15.5185 9 15.0911 8.78223C14.7148 8.59048 14.409 8.28392 14.2173 7.90759C13.9993 7.47977 13.9993 6.9201 13.9993 5.8V3.00087M8.99928 14L10.9993 16M3.99928 21V18.5L11.4993 11L13.9993 13.5L6.49928 21H3.99928Z" stroke="currentColor" stroke-width="1.5" stroke-linecap="round" stroke-linejoin="round"/>
</svg>
