<svg width="24" height="24" viewBox="0 0 24 24" fill="none" xmlns="http://www.w3.org/2000/svg">
<path d="M14.0001 2H6.00012C5.46969 2 4.96098 2.21071 4.58591 2.58579C4.21084 2.96086 4.00012 3.46957 4.00012 4V20C4.00012 20.5304 4.21084 21.0391 4.58591 21.4142C4.96098 21.7893 5.46969 22 6.00012 22H18.0001C18.5306 22 19.0393 21.7893 19.4143 21.4142C19.7894 21.0391 20.0001 20.5304 20.0001 20V8M14.0001 2C14.3167 1.99949 14.6302 2.0616 14.9227 2.18277C15.2151 2.30393 15.4807 2.48176 15.7041 2.706L19.2921 6.294C19.517 6.51751 19.6953 6.78334 19.8168 7.07616C19.9383 7.36898 20.0006 7.68297 20.0001 8M14.0001 2V7C14.0001 7.26522 14.1055 7.51957 14.293 7.70711C14.4806 7.89464 14.7349 8 15.0001 8L20.0001 8M9.00012 15H15.0001M12.0001 18V12" stroke="currentColor" stroke-width="1.5" stroke-linecap="round" stroke-linejoin="round"/>
</svg>
