<svg width="24" height="24" viewBox="0 0 24 24" fill="none" xmlns="http://www.w3.org/2000/svg">
<path d="M12.0001 18V15M12.0001 15V12M12.0001 15H9.00012M12.0001 15H15.0001M13.0001 3.00087C12.9046 3 12.7974 3 12.6748 3H8.20032C7.08021 3 6.51974 3 6.09192 3.21799C5.71559 3.40973 5.40986 3.71547 5.21811 4.0918C5.00012 4.51962 5.00012 5.08009 5.00012 6.2002V17.8002C5.00012 18.9203 5.00012 19.4801 5.21811 19.9079C5.40986 20.2842 5.71559 20.5905 6.09192 20.7822C6.51933 21 7.07913 21 8.19706 21L15.8032 21C16.9211 21 17.4801 21 17.9075 20.7822C18.2838 20.5905 18.5906 20.2842 18.7823 19.9079C19.0001 19.4805 19.0001 18.9215 19.0001 17.8036V9.32568C19.0001 9.20296 19.0001 9.09561 18.9992 9M13.0001 3.00087C13.2858 3.00347 13.4665 3.01385 13.639 3.05526C13.843 3.10425 14.038 3.18526 14.2169 3.29492C14.4187 3.41857 14.5919 3.59182 14.9376 3.9375L18.0631 7.06298C18.409 7.40889 18.581 7.58136 18.7047 7.78319C18.8143 7.96214 18.8955 8.15726 18.9445 8.36133C18.9859 8.53376 18.9965 8.71451 18.9992 9M13.0001 3.00087V5.8C13.0001 6.9201 13.0001 7.47977 13.2181 7.90759C13.4099 8.28392 13.7156 8.59048 14.0919 8.78223C14.5193 9 15.0791 9 16.197 9H18.9992M18.9992 9H19.0003" stroke="currentColor" stroke-width="1.5" stroke-linecap="round" stroke-linejoin="round"/>
</svg>
