<svg width="24" height="24" viewBox="0 0 24 24" fill="none" xmlns="http://www.w3.org/2000/svg">
<path d="M11.9994 10C11.469 10 10.9602 10.2107 10.5852 10.5858C10.2101 10.9609 9.99939 11.4696 9.99939 12C9.99939 13.02 9.89939 14.51 9.73939 16M13.9994 13.12C13.9994 15.5 13.9994 19.5 12.9994 22M17.2894 21.02C17.4094 20.42 17.7194 18.72 17.7894 18M1.99939 12C1.99939 9.90118 2.65976 7.85555 3.88697 6.1529C5.11417 4.45024 6.84599 3.17687 8.83711 2.51317C10.8282 1.84946 12.9777 1.82906 14.9811 2.45486C16.9844 3.08067 18.7401 4.32094 19.9994 6M1.99939 16H2.00939M21.7994 16C21.9994 14 21.9304 10.646 21.7994 10M4.99939 19.5C5.49939 18 5.99939 15 5.99939 12C5.99838 11.3189 6.11336 10.6425 6.33939 10M8.64939 22C8.85939 21.34 9.09939 20.68 9.21939 20M8.99939 6.8C9.91179 6.27323 10.9468 5.99598 12.0004 5.99615C13.0539 5.99632 14.0888 6.2739 15.0011 6.80096C15.9133 7.32803 16.6707 8.086 17.197 8.99865C17.7233 9.9113 18.0001 10.9465 17.9994 12V14" stroke="currentColor" stroke-width="1.5" stroke-linecap="round" stroke-linejoin="round"/>
</svg>
