<svg width="24" height="24" viewBox="0 0 24 24" fill="none" xmlns="http://www.w3.org/2000/svg">
<path d="M6.00085 14L7.50085 11.1C7.66393 10.7761 7.91198 10.5027 8.21846 10.3089C8.52495 10.1152 8.87835 10.0084 9.24085 10H20.0009M20.0009 10C20.3064 9.99946 20.608 10.0689 20.8825 10.2031C21.157 10.3372 21.3971 10.5325 21.5844 10.7739C21.7717 11.0152 21.9013 11.2963 21.963 11.5956C22.0248 11.8948 22.0172 12.2042 21.9409 12.5L20.4009 18.5C20.2894 18.9316 20.0371 19.3135 19.6838 19.5853C19.3305 19.857 18.8966 20.003 18.4509 20H4.00085C3.47042 20 2.96171 19.7893 2.58664 19.4142C2.21157 19.0391 2.00085 18.5304 2.00085 18V5C2.00085 4.46957 2.21157 3.96086 2.58664 3.58579C2.96171 3.21071 3.47042 3 4.00085 3H7.90085C8.23534 2.99672 8.56531 3.07739 8.86055 3.23462C9.1558 3.39185 9.40689 3.62062 9.59085 3.9L10.4009 5.1C10.583 5.37653 10.8309 5.60352 11.1224 5.7606C11.4138 5.91769 11.7397 5.99995 12.0709 6H18.0009C18.5313 6 19.04 6.21071 19.4151 6.58579C19.7901 6.96086 20.0009 7.46957 20.0009 8V10Z" stroke="currentColor" stroke-width="1.5" stroke-linecap="round" stroke-linejoin="round"/>
</svg>
