<svg width="24" height="24" viewBox="0 0 24 24" fill="none" xmlns="http://www.w3.org/2000/svg">
<path d="M22.0002 12C22.0002 17.5228 17.5231 22 12.0002 22M22.0002 12C22.0002 6.47715 17.5231 2 12.0002 2M22.0002 12H2.00024M12.0002 22C6.4774 22 2.00024 17.5228 2.00024 12M12.0002 22C9.43248 19.3038 8.00024 15.7233 8.00024 12C8.00024 8.27674 9.43248 4.69615 12.0002 2M12.0002 22C14.568 19.3038 16.0002 15.7233 16.0002 12C16.0002 8.27674 14.568 4.69615 12.0002 2M2.00024 12C2.00024 6.47715 6.4774 2 12.0002 2" stroke="currentColor" stroke-width="1.5" stroke-linecap="round" stroke-linejoin="round"/>
</svg>
