<svg width="24" height="24" viewBox="0 0 24 24" fill="none" xmlns="http://www.w3.org/2000/svg">
<path d="M9.09098 9C9.32608 8.33167 9.79013 7.76811 10.4009 7.40913C11.0117 7.05016 11.7299 6.91894 12.4282 7.03871C13.1264 7.15849 13.7598 7.52152 14.2161 8.06353C14.6723 8.60553 14.922 9.29152 14.921 10C14.921 12 11.921 13 11.921 13M12.001 17H12.011M22.001 12C22.001 17.5228 17.5238 22 12.001 22C6.47813 22 2.00098 17.5228 2.00098 12C2.00098 6.47715 6.47813 2 12.001 2C17.5238 2 22.001 6.47715 22.001 12Z" stroke="currentColor" stroke-width="1.5" stroke-linecap="round" stroke-linejoin="round"/>
</svg>
