<svg width="24" height="24" viewBox="0 0 24 24" fill="none" xmlns="http://www.w3.org/2000/svg">
<path d="M21.001 15L17.915 11.914C17.5399 11.5391 17.0313 11.3284 16.501 11.3284C15.9706 11.3284 15.462 11.5391 15.087 11.914L6.00098 21M5.00098 3H19.001C20.1055 3 21.001 3.89543 21.001 5V19C21.001 20.1046 20.1055 21 19.001 21H5.00098C3.89641 21 3.00098 20.1046 3.00098 19V5C3.00098 3.89543 3.89641 3 5.00098 3ZM11.001 9C11.001 10.1046 10.1055 11 9.00098 11C7.89641 11 7.00098 10.1046 7.00098 9C7.00098 7.89543 7.89641 7 9.00098 7C10.1055 7 11.001 7.89543 11.001 9Z" stroke="currentColor" stroke-width="1.5" stroke-linecap="round" stroke-linejoin="round"/>
</svg>
