<svg width="24" height="24" viewBox="0 0 24 24" fill="none" xmlns="http://www.w3.org/2000/svg">
<path d="M20.0547 15.987H3.94666M18.0007 5C18.5311 5 19.0398 5.21071 19.4149 5.58579C19.7899 5.96086 20.0007 6.46957 20.0007 7V15.526C20.0005 15.8374 20.0731 16.1446 20.2127 16.423L21.2807 18.55C21.3578 18.703 21.3943 18.8732 21.3867 19.0444C21.3791 19.2155 21.3276 19.3818 21.2373 19.5274C21.1469 19.6729 21.0207 19.7928 20.8707 19.8756C20.7207 19.9584 20.552 20.0012 20.3807 20H3.62066C3.44935 20.0012 3.28061 19.9584 3.13061 19.8756C2.98061 19.7928 2.85438 19.6729 2.76404 19.5274C2.67369 19.3818 2.62226 19.2155 2.61466 19.0444C2.60707 18.8732 2.64357 18.703 2.72066 18.55L3.78866 16.423C3.9282 16.1446 4.0008 15.8374 4.00066 15.526V7C4.00066 6.46957 4.21138 5.96086 4.58645 5.58579C4.96152 5.21071 5.47023 5 6.00066 5H18.0007Z" stroke="currentColor" stroke-width="1.5" stroke-linecap="round" stroke-linejoin="round"/>
</svg>
