<svg width="24" height="24" viewBox="0 0 24 24" fill="none" xmlns="http://www.w3.org/2000/svg">
<path d="M19.9994 10C19.9994 14.993 14.4604 20.193 12.6004 21.799C12.4271 21.9293 12.2162 21.9998 11.9994 21.9998C11.7826 21.9998 11.5717 21.9293 11.3984 21.799C9.53839 20.193 3.99939 14.993 3.99939 10C3.99939 7.87827 4.84224 5.84344 6.34254 4.34315C7.84283 2.84285 9.87766 2 11.9994 2C14.1211 2 16.156 2.84285 17.6562 4.34315C19.1565 5.84344 19.9994 7.87827 19.9994 10Z" stroke="currentColor" stroke-width="1.5" stroke-linecap="round" stroke-linejoin="round"/>
<path d="M11.9994 13C13.6562 13 14.9994 11.6569 14.9994 10C14.9994 8.34315 13.6562 7 11.9994 7C10.3425 7 8.99939 8.34315 8.99939 10C8.99939 11.6569 10.3425 13 11.9994 13Z" stroke="currentColor" stroke-width="1.5" stroke-linecap="round" stroke-linejoin="round"/>
</svg>
