<svg width="24" height="24" viewBox="0 0 24 24" fill="none" xmlns="http://www.w3.org/2000/svg">
<path d="M7.00031 11V7C7.00031 5.67392 7.52709 4.40215 8.46477 3.46447C9.40245 2.52678 10.6742 2 12.0003 2C13.3264 2 14.5982 2.52678 15.5358 3.46447C16.4735 4.40215 17.0003 5.67392 17.0003 7V11M5.00031 11H19.0003C20.1049 11 21.0003 11.8954 21.0003 13V20C21.0003 21.1046 20.1049 22 19.0003 22H5.00031C3.89574 22 3.00031 21.1046 3.00031 20V13C3.00031 11.8954 3.89574 11 5.00031 11Z" stroke="currentColor" stroke-width="1.5" stroke-linecap="round" stroke-linejoin="round"/>
</svg>
