<svg width="24" height="24" viewBox="0 0 24 24" fill="none" xmlns="http://www.w3.org/2000/svg">
<path d="M14.9994 5.76393C14.6891 5.76393 14.383 5.69172 14.1054 5.553L9.89339 3.447C9.61579 3.30828 9.30972 3.23607 8.99939 3.23607M14.9994 5.76393C15.3097 5.76393 15.6158 5.69172 15.8934 5.553L19.5524 3.723C19.705 3.64676 19.8745 3.61081 20.0449 3.61857C20.2153 3.62633 20.3808 3.67754 20.5259 3.76733C20.6709 3.85712 20.7905 3.98251 20.8734 4.13158C20.9563 4.28065 20.9996 4.44844 20.9994 4.619V17.383C20.9993 17.5687 20.9475 17.7506 20.8498 17.9085C20.7522 18.0664 20.6125 18.194 20.4464 18.277L15.8934 20.554C15.6158 20.6927 15.3097 20.7649 14.9994 20.7649M14.9994 5.76393V20.7649M14.9994 20.7649C14.6891 20.7649 14.383 20.6927 14.1054 20.554L9.89339 18.448C9.61579 18.3093 9.30972 18.2371 8.99939 18.2371C8.68906 18.2371 8.38299 18.3093 8.10539 18.448L4.44639 20.278C4.29374 20.3543 4.12412 20.3902 3.95365 20.3824C3.78318 20.3746 3.61755 20.3233 3.47251 20.2334C3.32747 20.1435 3.20785 20.018 3.12504 19.8688C3.04223 19.7196 2.99897 19.5516 2.99939 19.381V6.618C2.99949 6.43234 3.05128 6.25037 3.14895 6.09247C3.24661 5.93458 3.38631 5.80699 3.55239 5.724L8.10539 3.447C8.38299 3.30828 8.68906 3.23607 8.99939 3.23607M8.99939 3.23607V18.236" stroke="currentColor" stroke-width="1.5" stroke-linecap="round" stroke-linejoin="round"/>
</svg>
