<svg width="24" height="24" viewBox="0 0 24 24" fill="none" xmlns="http://www.w3.org/2000/svg">
<path d="M15.9994 8.00001V13C15.9994 13.7957 16.3155 14.5587 16.8781 15.1213C17.4407 15.6839 18.2038 16 18.9994 16C19.7951 16 20.5581 15.6839 21.1207 15.1213C21.6833 14.5587 21.9994 13.7957 21.9994 13V12C21.9994 9.74731 21.2388 7.56061 19.8408 5.79418C18.4428 4.02775 16.4894 2.78508 14.2969 2.26752C12.1045 1.74996 9.80153 1.98782 7.76117 2.94256C5.7208 3.89731 4.06257 5.513 3.05513 7.52787C2.04769 9.54274 1.75008 11.8387 2.2105 14.0439C2.67093 16.249 3.86242 18.2341 5.59193 19.6775C7.32144 21.1209 9.48764 21.9381 11.7396 21.9966C13.9915 22.0552 16.1972 21.3516 17.9994 20M15.9994 12C15.9994 14.2091 14.2085 16 11.9994 16C9.79026 16 7.9994 14.2091 7.9994 12C7.9994 9.79087 9.79026 8.00001 11.9994 8.00001C14.2085 8.00001 15.9994 9.79087 15.9994 12Z" stroke="currentColor" stroke-width="1.5" stroke-linecap="round" stroke-linejoin="round"/>
</svg>
