<svg width="24" height="24" viewBox="0 0 24 24" fill="none" xmlns="http://www.w3.org/2000/svg">
<path d="M11.9992 19V22M11.9992 19C13.8557 19 15.6362 18.2625 16.949 16.9497C18.2617 15.637 18.9992 13.8565 18.9992 12V10M11.9992 19C10.1427 19 8.36221 18.2625 7.04946 16.9497C5.7367 15.637 4.99921 13.8565 4.99921 12V10M11.9992 2C13.6561 2 14.9992 3.34315 14.9992 5V12C14.9992 13.6569 13.6561 15 11.9992 15C10.3424 15 8.99921 13.6569 8.99921 12V5C8.99921 3.34315 10.3424 2 11.9992 2Z" stroke="currentColor" stroke-width="1.5" stroke-linecap="round" stroke-linejoin="round"/>
</svg>
