<svg width="24" height="24" viewBox="0 0 24 24" fill="none" xmlns="http://www.w3.org/2000/svg">
<path d="M12.0007 13C12.553 13 13.0007 12.5523 13.0007 12C13.0007 11.4477 12.553 11 12.0007 11C11.4484 11 11.0007 11.4477 11.0007 12C11.0007 12.5523 11.4484 13 12.0007 13Z" stroke="currentColor" stroke-width="1.5" stroke-linecap="round" stroke-linejoin="round"/>
<path d="M12.0007 6C12.553 6 13.0007 5.55228 13.0007 5C13.0007 4.44772 12.553 4 12.0007 4C11.4484 4 11.0007 4.44772 11.0007 5C11.0007 5.55228 11.4484 6 12.0007 6Z" stroke="currentColor" stroke-width="1.5" stroke-linecap="round" stroke-linejoin="round"/>
<path d="M12.0007 20C12.553 20 13.0007 19.5523 13.0007 19C13.0007 18.4477 12.553 18 12.0007 18C11.4484 18 11.0007 18.4477 11.0007 19C11.0007 19.5523 11.4484 20 12.0007 20Z" stroke="currentColor" stroke-width="1.5" stroke-linecap="round" stroke-linejoin="round"/>
</svg>
