<svg width="24" height="24" viewBox="0 0 24 24" fill="none" xmlns="http://www.w3.org/2000/svg">
<path d="M12.0009 13C12.5531 13 13.0009 12.5523 13.0009 12C13.0009 11.4477 12.5531 11 12.0009 11C11.4486 11 11.0009 11.4477 11.0009 12C11.0009 12.5523 11.4486 13 12.0009 13Z" stroke="currentColor" stroke-width="1.5" stroke-linecap="round" stroke-linejoin="round"/>
<path d="M19.0009 13C19.5531 13 20.0009 12.5523 20.0009 12C20.0009 11.4477 19.5531 11 19.0009 11C18.4486 11 18.0009 11.4477 18.0009 12C18.0009 12.5523 18.4486 13 19.0009 13Z" stroke="currentColor" stroke-width="1.5" stroke-linecap="round" stroke-linejoin="round"/>
<path d="M5.00085 13C5.55314 13 6.00085 12.5523 6.00085 12C6.00085 11.4477 5.55314 11 5.00085 11C4.44857 11 4.00085 11.4477 4.00085 12C4.00085 12.5523 4.44857 13 5.00085 13Z" stroke="currentColor" stroke-width="1.5" stroke-linecap="round" stroke-linejoin="round"/>
</svg>
