<svg width="24" height="24" viewBox="0 0 24 24" fill="none" xmlns="http://www.w3.org/2000/svg">
<path d="M10.2676 21C10.4431 21.304 10.6956 21.5565 10.9996 21.732C11.3036 21.9075 11.6485 21.9999 11.9996 21.9999C12.3506 21.9999 12.6955 21.9075 12.9995 21.732C13.3036 21.5565 13.556 21.304 13.7316 21M16.9996 17H3.99957C3.80577 17.0001 3.61613 16.9438 3.45371 16.8381C3.29128 16.7324 3.16308 16.5817 3.08468 16.4045C3.00629 16.2273 2.98108 16.0311 3.01213 15.8398C3.04318 15.6485 3.12915 15.4703 3.25957 15.327C4.58957 13.956 5.99957 12.499 5.99957 7.99999C5.99943 7.40979 6.08636 6.82281 6.25757 6.25799M1.99957 1.99999L21.9996 22M8.66757 3.00999C9.57106 2.40667 10.6214 2.05998 11.7065 2.00692C12.7916 1.95385 13.8708 2.1964 14.8288 2.70869C15.7869 3.22097 16.5878 3.98376 17.1463 4.91566C17.7047 5.84755 17.9996 6.91359 17.9996 7.99999C17.9996 10.687 18.7696 12.653 19.7066 14.05" stroke="currentColor" stroke-width="1.5" stroke-linecap="round" stroke-linejoin="round"/>
</svg>
