<svg width="24" height="24" viewBox="0 0 24 24" fill="none" xmlns="http://www.w3.org/2000/svg">
<path d="M18.0001 3H15.0001C14.4478 3 14.0001 3.44772 14.0001 4V20C14.0001 20.5523 14.4478 21 15.0001 21H18.0001C18.5524 21 19.0001 20.5523 19.0001 20V4C19.0001 3.44772 18.5524 3 18.0001 3Z" stroke="currentColor" stroke-width="1.5" stroke-linecap="round" stroke-linejoin="round"/>
<path d="M9.00012 3H6.00012C5.44784 3 5.00012 3.44772 5.00012 4V20C5.00012 20.5523 5.44784 21 6.00012 21H9.00012C9.55241 21 10.0001 20.5523 10.0001 20V4C10.0001 3.44772 9.55241 3 9.00012 3Z" stroke="currentColor" stroke-width="1.5" stroke-linecap="round" stroke-linejoin="round"/>
</svg>
