<svg width="24" height="24" viewBox="0 0 24 24" fill="none" xmlns="http://www.w3.org/2000/svg">
<path d="M13.8316 16.568C14.0382 16.6628 14.2709 16.6845 14.4913 16.6294C14.7118 16.5744 14.907 16.4458 15.0446 16.265L15.3996 15.8C15.5859 15.5516 15.8275 15.35 16.1052 15.2111C16.3829 15.0723 16.6892 15 16.9996 15H19.9996C20.5301 15 21.0388 15.2107 21.4139 15.5858C21.7889 15.9609 21.9996 16.4696 21.9996 17V20C21.9996 20.5304 21.7889 21.0391 21.4139 21.4142C21.0388 21.7893 20.5301 22 19.9996 22C15.2258 22 10.6474 20.1036 7.27173 16.7279C3.89607 13.3523 1.99965 8.7739 1.99965 4C1.99965 3.46957 2.21036 2.96086 2.58544 2.58579C2.96051 2.21071 3.46922 2 3.99965 2H6.99965C7.53008 2 8.03879 2.21071 8.41386 2.58579C8.78893 2.96086 8.99965 3.46957 8.99965 4V7C8.99965 7.31049 8.92736 7.61672 8.7885 7.89443C8.64965 8.17214 8.44804 8.41371 8.19965 8.6L7.73165 8.951C7.54807 9.09118 7.41867 9.29059 7.36544 9.51535C7.31221 9.74012 7.33843 9.97638 7.43965 10.184C8.80633 12.9599 11.0541 15.2048 13.8316 16.568Z" stroke="currentColor" stroke-width="1.5" stroke-linecap="round" stroke-linejoin="round"/>
</svg>
