<svg width="24" height="24" viewBox="0 0 24 24" fill="none" xmlns="http://www.w3.org/2000/svg">
<path d="M21.2099 15.89C20.5738 17.3945 19.5787 18.7202 18.3118 19.7513C17.0449 20.7824 15.5447 21.4874 13.9424 21.8048C12.34 22.1221 10.6844 22.0421 9.12009 21.5718C7.55582 21.1014 6.13057 20.2551 4.96897 19.1067C3.80736 17.9582 2.94476 16.5428 2.45658 14.9839C1.9684 13.4251 1.86951 11.7705 2.16854 10.1646C2.46758 8.55878 3.15544 7.05063 4.17199 5.77203C5.18854 4.49343 6.50283 3.48332 7.99995 2.83M20.9999 12C21.5519 12 22.0049 11.551 21.9499 11.002C21.7194 8.70617 20.702 6.5607 19.0703 4.92932C17.4385 3.29794 15.2928 2.28104 12.9969 2.051C12.4469 1.996 11.9989 2.449 11.9989 3.001V11.001C11.9989 11.2662 12.1043 11.5206 12.2918 11.7081C12.4794 11.8956 12.7337 12.001 12.9989 12.001L20.9999 12Z" stroke="currentColor" stroke-width="1.5" stroke-linecap="round" stroke-linejoin="round"/>
</svg>
