<svg width="24" height="24" viewBox="0 0 24 24" fill="none" xmlns="http://www.w3.org/2000/svg">
<path d="M10.5125 4.856L13.1195 2.17C13.1937 2.08428 13.2949 2.02636 13.4064 2.00573C13.518 1.98511 13.6332 2.00301 13.7332 2.0565C13.8332 2.10999 13.9121 2.1959 13.9568 2.30011C14.0016 2.40432 14.0095 2.52065 13.9795 2.63L12.6025 6.947M15.6555 10H19.9995C20.1887 9.99935 20.3742 10.0524 20.5345 10.153C20.6948 10.2536 20.8232 10.3976 20.9049 10.5683C20.9866 10.739 21.0182 10.9294 20.996 11.1173C20.9738 11.3053 20.8987 11.483 20.7795 11.63L19.0595 13.403M16.2725 16.273L10.8795 21.83C10.8052 21.9157 10.704 21.9736 10.5925 21.9943C10.481 22.0149 10.3657 21.997 10.2657 21.9435C10.1657 21.89 10.0869 21.8041 10.0421 21.6999C9.99738 21.5957 9.98939 21.4794 10.0195 21.37L11.9395 15.35C11.9961 15.1985 12.0151 15.0355 11.9949 14.875C11.9747 14.7145 11.9158 14.5613 11.8234 14.4286C11.7309 14.2958 11.6077 14.1875 11.4642 14.1128C11.3207 14.0382 11.1612 13.9995 10.9995 14H3.99947C3.81023 14.0006 3.6247 13.9476 3.46442 13.847C3.30414 13.7464 3.1757 13.6024 3.09402 13.4317C3.01233 13.261 2.98076 13.0706 3.00297 12.8827C3.02517 12.6947 3.10025 12.517 3.21947 12.37L7.72647 7.727M1.99947 2L21.9995 22" stroke="currentColor" stroke-width="1.5" stroke-linecap="round" stroke-linejoin="round"/>
</svg>
