<svg width="24" height="24" viewBox="0 0 24 24" fill="none" xmlns="http://www.w3.org/2000/svg">
<path d="M3.99929 14C3.81006 14.0006 3.62452 13.9476 3.46424 13.847C3.30397 13.7464 3.17552 13.6024 3.09384 13.4317C3.01216 13.261 2.98058 13.0706 3.00279 12.8827C3.025 12.6947 3.10007 12.517 3.21929 12.37L13.1193 2.17C13.1936 2.08428 13.2947 2.02636 13.4063 2.00573C13.5178 1.98511 13.633 2.00301 13.733 2.0565C13.833 2.10999 13.9119 2.1959 13.9566 2.30011C14.0014 2.40432 14.0094 2.52065 13.9793 2.63L12.0593 8.65C12.0027 8.80152 11.9837 8.96452 12.0039 9.12501C12.0241 9.28549 12.083 9.43868 12.1754 9.57143C12.2678 9.70417 12.3911 9.81251 12.5346 9.88716C12.6781 9.9618 12.8375 10.0005 12.9993 10H19.9993C20.1885 9.99935 20.3741 10.0524 20.5343 10.153C20.6946 10.2536 20.8231 10.3976 20.9047 10.5683C20.9864 10.739 21.018 10.9294 20.9958 11.1173C20.9736 11.3053 20.8985 11.483 20.7793 11.63L10.8793 21.83C10.805 21.9157 10.7038 21.9736 10.5923 21.9943C10.4808 22.0149 10.3656 21.997 10.2656 21.9435C10.1656 21.89 10.0867 21.8041 10.042 21.6999C9.9972 21.5957 9.98921 21.4794 10.0193 21.37L11.9393 15.35C11.9959 15.1985 12.0149 15.0355 11.9947 14.875C11.9745 14.7145 11.9156 14.5613 11.8232 14.4286C11.7308 14.2958 11.6075 14.1875 11.464 14.1128C11.3205 14.0382 11.161 13.9995 10.9993 14H3.99929Z" stroke="currentColor" stroke-width="1.5" stroke-linecap="round" stroke-linejoin="round"/>
</svg>
