<svg width="24" height="24" viewBox="0 0 24 24" fill="none" xmlns="http://www.w3.org/2000/svg">
<path d="M6.00067 18H4.00067C3.47024 18 2.96153 17.7893 2.58646 17.4142C2.21138 17.0391 2.00067 16.5304 2.00067 16V11C2.00067 10.4696 2.21138 9.96086 2.58646 9.58579C2.96153 9.21071 3.47024 9 4.00067 9H20.0007C20.5311 9 21.0398 9.21071 21.4149 9.58579C21.79 9.96086 22.0007 10.4696 22.0007 11V16C22.0007 16.5304 21.79 17.0391 21.4149 17.4142C21.0398 17.7893 20.5311 18 20.0007 18H18.0007M6.00067 9V3C6.00067 2.73478 6.10603 2.48043 6.29356 2.29289C6.4811 2.10536 6.73545 2 7.00067 2H17.0007C17.2659 2 17.5202 2.10536 17.7078 2.29289C17.8953 2.48043 18.0007 2.73478 18.0007 3V9M7.00067 14H17.0007C17.553 14 18.0007 14.4477 18.0007 15V21C18.0007 21.5523 17.553 22 17.0007 22H7.00067C6.44839 22 6.00067 21.5523 6.00067 21V15C6.00067 14.4477 6.44839 14 7.00067 14Z" stroke="currentColor" stroke-width="1.5" stroke-linecap="round" stroke-linejoin="round"/>
</svg>
