<svg width="24" height="24" viewBox="0 0 24 24" fill="none" xmlns="http://www.w3.org/2000/svg">
<path d="M15.9994 8H9.99939C9.46896 8 8.96025 8.21071 8.58518 8.58579C8.2101 8.96086 7.99939 9.46957 7.99939 10C7.99939 10.5304 8.2101 11.0391 8.58518 11.4142C8.96025 11.7893 9.46896 12 9.99939 12H13.9994C14.5298 12 15.0385 12.2107 15.4136 12.5858C15.7887 12.9609 15.9994 13.4696 15.9994 14C15.9994 14.5304 15.7887 15.0391 15.4136 15.4142C15.0385 15.7893 14.5298 16 13.9994 16H7.99939M11.9994 17.5V6.5M3.99939 2V22L5.99939 21L7.99939 22L9.99939 21L11.9994 22L13.9994 21L15.9994 22L17.9994 21L19.9994 22V2L17.9994 3L15.9994 2L13.9994 3L11.9994 2L9.99939 3L7.99939 2L5.99939 3L3.99939 2Z" stroke="currentColor" stroke-width="1.5" stroke-linecap="round" stroke-linejoin="round"/>
</svg>
