<svg width="24" height="24" viewBox="0 0 24 24" fill="none" xmlns="http://www.w3.org/2000/svg">
<path d="M10.914 13.0852C10.7229 12.8945 10.4951 12.7444 10.2444 12.644L2.31442 9.46399C2.21973 9.426 2.13894 9.35996 2.08287 9.27472C2.02681 9.18949 1.99816 9.08914 2.00077 8.98715C2.00339 8.88517 2.03713 8.78642 2.09749 8.70417C2.15784 8.62191 2.24191 8.56009 2.33842 8.527L21.3384 2.027C21.427 1.99499 21.5229 1.98888 21.6149 2.00939C21.7068 2.02989 21.791 2.07616 21.8576 2.14277C21.9243 2.20939 21.9705 2.2936 21.991 2.38555C22.0115 2.4775 22.0054 2.57339 21.9734 2.662L15.4734 21.662C15.4403 21.7585 15.3785 21.8426 15.2962 21.9029C15.214 21.9633 15.1152 21.997 15.0133 21.9996C14.9113 22.0022 14.8109 21.9736 14.7257 21.9175C14.6405 21.8615 14.5744 21.7807 14.5364 21.686L11.3564 13.754C11.2556 13.5035 11.1051 13.276 10.914 13.0852ZM10.914 13.0852L21.8544 2.147" stroke="currentColor" stroke-width="1.5" stroke-linecap="round" stroke-linejoin="round"/>
</svg>
