<svg width="24" height="24" viewBox="0 0 24 24" fill="none" xmlns="http://www.w3.org/2000/svg">
<path d="M13.6001 21.0761L19.0603 17.9236C19.6432 17.5871 19.934 17.4188 20.146 17.1834C20.3335 16.9751 20.4754 16.7297 20.562 16.4632C20.6596 16.1626 20.6596 15.8267 20.6596 15.1568V8.84268C20.6596 8.17277 20.6596 7.83694 20.562 7.53638C20.4754 7.26982 20.3335 7.02428 20.146 6.816C19.935 6.58161 19.6447 6.41405 19.0669 6.08043L13.5991 2.92359C13.0162 2.58706 12.7253 2.41913 12.4155 2.35328C12.1413 2.295 11.8579 2.295 11.5837 2.35328C11.2739 2.41914 10.9821 2.58706 10.3992 2.92359L4.9379 6.07666C4.35569 6.41279 4.06482 6.58073 3.85298 6.816C3.66544 7.02428 3.52381 7.26982 3.4372 7.53638C3.33931 7.83765 3.33931 8.17436 3.33931 8.84742V15.1524C3.33931 15.8254 3.33931 16.1619 3.4372 16.4632C3.52381 16.7297 3.66544 16.9751 3.85298 17.1834C4.06494 17.4188 4.35603 17.5871 4.93892 17.9236L10.3992 21.0761C10.982 21.4126 11.2739 21.5806 11.5837 21.6465C11.8579 21.7047 12.1413 21.7047 12.4155 21.6465C12.7253 21.5806 13.0172 21.4126 13.6001 21.0761Z" stroke="currentColor" stroke-width="1.5" stroke-linecap="round" stroke-linejoin="round"/>
<path d="M8.99947 11.9998C8.99947 13.6566 10.3426 14.9998 11.9995 14.9998C13.6563 14.9998 14.9995 13.6566 14.9995 11.9998C14.9995 10.3429 13.6563 8.99976 11.9995 8.99976C10.3426 8.99976 8.99947 10.3429 8.99947 11.9998Z" stroke="currentColor" stroke-width="1.5" stroke-linecap="round" stroke-linejoin="round"/>
</svg>
