<svg width="24" height="24" viewBox="0 0 24 24" fill="none" xmlns="http://www.w3.org/2000/svg">
<path d="M8.58965 13.51L15.4196 17.49M15.4096 6.51L8.58965 10.49M20.9996 5C20.9996 6.65685 19.6565 8 17.9996 8C16.3428 8 14.9996 6.65685 14.9996 5C14.9996 3.34315 16.3428 2 17.9996 2C19.6565 2 20.9996 3.34315 20.9996 5ZM8.99965 12C8.99965 13.6569 7.6565 15 5.99965 15C4.34279 15 2.99965 13.6569 2.99965 12C2.99965 10.3431 4.34279 9 5.99965 9C7.6565 9 8.99965 10.3431 8.99965 12ZM20.9996 19C20.9996 20.6569 19.6565 22 17.9996 22C16.3428 22 14.9996 20.6569 14.9996 19C14.9996 17.3431 16.3428 16 17.9996 16C19.6565 16 20.9996 17.3431 20.9996 19Z" stroke="currentColor" stroke-width="1.5" stroke-linecap="round" stroke-linejoin="round"/>
</svg>
