<svg width="24" height="24" viewBox="0 0 24 24" fill="none" xmlns="http://www.w3.org/2000/svg">
<path d="M13.9991 2H5.99908C5.46865 2 4.95994 2.21071 4.58487 2.58579C4.2098 2.96086 3.99908 3.46957 3.99908 4V20C3.99908 20.5304 4.2098 21.0391 4.58487 21.4142C4.95994 21.7893 5.46865 22 5.99908 22H17.9991C18.5295 22 19.0382 21.7893 19.4133 21.4142C19.7884 21.0391 19.9991 20.5304 19.9991 20V8M13.9991 2C14.3156 1.99949 14.6292 2.0616 14.9216 2.18277C15.2141 2.30394 15.4797 2.48176 15.7031 2.706L19.2911 6.294C19.5159 6.51751 19.6943 6.78335 19.8158 7.07616C19.9373 7.36898 19.9996 7.68297 19.9991 8M13.9991 2V7C13.9991 7.26522 14.1044 7.51957 14.292 7.70711C14.4795 7.89464 14.7339 8 14.9991 8L19.9991 8M7.99908 13H9.99908M13.9991 13H15.9991M7.99908 17H9.99908M13.9991 17H15.9991" stroke="currentColor" stroke-width="1.5" stroke-linecap="round" stroke-linejoin="round"/>
</svg>
