<svg width="24" height="24" viewBox="0 0 24 24" fill="none" xmlns="http://www.w3.org/2000/svg">
<path d="M8.99982 12L10.9998 14L14.9998 10M19.9998 13C19.9998 18 16.4998 20.5 12.3398 21.95C12.122 22.0238 11.8854 22.0203 11.6698 21.94C7.49982 20.5 3.99982 18 3.99982 13V6C3.99982 5.73478 4.10518 5.48043 4.29272 5.29289C4.48025 5.10536 4.73461 5 4.99982 5C6.99982 5 9.49982 3.8 11.2398 2.28C11.4517 2.099 11.7212 1.99955 11.9998 1.99955C12.2785 1.99955 12.548 2.099 12.7598 2.28C14.5098 3.81 16.9998 5 18.9998 5C19.265 5 19.5194 5.10536 19.7069 5.29289C19.8945 5.48043 19.9998 5.73478 19.9998 6V13Z" stroke="currentColor" stroke-width="1.5" stroke-linecap="round" stroke-linejoin="round"/>
</svg>
