<svg width="24" height="24" viewBox="0 0 24 24" fill="none" xmlns="http://www.w3.org/2000/svg">
<path d="M9.00012 20V4M9.00012 20H16.8032C17.9211 20 18.4801 20 18.9075 19.7822C19.2838 19.5905 19.5906 19.2837 19.7823 18.9074C20.0001 18.48 20.0001 17.921 20.0001 16.8031V7.19691C20.0001 6.07899 20.0001 5.5192 19.7823 5.0918C19.5906 4.71547 19.2838 4.40973 18.9075 4.21799C18.4797 4 17.9204 4 16.8003 4H9.00012M9.00012 20H7.19705C6.07913 20 5.51932 20 5.09192 19.7822C4.71559 19.5905 4.40986 19.2837 4.21811 18.9074C4.00012 18.4796 4.00012 17.9203 4.00012 16.8002V7.2002C4.00012 6.08009 4.00012 5.51962 4.21811 5.0918C4.40986 4.71547 4.71559 4.40973 5.09192 4.21799C5.51974 4 6.08021 4 7.20032 4H9.00012" stroke="currentColor" stroke-width="1.5" stroke-linecap="round" stroke-linejoin="round"/>
</svg>
