<svg width="24" height="24" viewBox="0 0 24 24" fill="none" xmlns="http://www.w3.org/2000/svg">
<path d="M11.525 2.295C11.5689 2.20646 11.6366 2.13193 11.7205 2.07983C11.8044 2.02772 11.9012 2.00011 12 2.00011C12.0988 2.00011 12.1956 2.02772 12.2796 2.07983C12.3635 2.13193 12.4312 2.20646 12.475 2.295L14.785 6.974C14.9372 7.28197 15.1618 7.54841 15.4397 7.75045C15.7175 7.9525 16.0402 8.08411 16.38 8.134L21.546 8.89C21.6439 8.90418 21.7359 8.94547 21.8115 9.0092C21.8872 9.07293 21.9435 9.15655 21.974 9.25061C22.0046 9.34467 22.0083 9.44541 21.9846 9.54144C21.9609 9.63747 21.9108 9.72495 21.84 9.794L18.104 13.432C17.8576 13.6721 17.6733 13.9685 17.5669 14.2956C17.4604 14.6228 17.4351 14.9709 17.493 15.31L18.375 20.45C18.3923 20.5478 18.3817 20.6486 18.3445 20.7407C18.3073 20.8328 18.245 20.9126 18.1646 20.971C18.0842 21.0294 17.989 21.064 17.8899 21.0709C17.7908 21.0778 17.6917 21.0567 17.604 21.01L12.986 18.582C12.6817 18.4222 12.3432 18.3388 11.9995 18.3388C11.6559 18.3388 11.3173 18.4222 11.013 18.582L6.39603 21.01C6.30836 21.0564 6.20943 21.0773 6.11048 21.0703C6.01153 21.0632 5.91655 21.0286 5.83632 20.9702C5.7561 20.9119 5.69386 20.8322 5.65669 20.7402C5.61951 20.6483 5.60889 20.5477 5.62603 20.45L6.50703 15.311C6.56523 14.9717 6.54001 14.6234 6.43357 14.296C6.32712 13.9687 6.14264 13.6722 5.89603 13.432L2.16003 9.795C2.08862 9.72603 2.03802 9.6384 2.01399 9.54207C1.98996 9.44575 1.99347 9.34462 2.02411 9.25019C2.05475 9.15576 2.1113 9.07184 2.18731 9.00798C2.26332 8.94413 2.35573 8.9029 2.45403 8.889L7.61903 8.134C7.95929 8.0845 8.28242 7.95306 8.56061 7.75099C8.83881 7.54892 9.06373 7.28227 9.21603 6.974L11.525 2.295Z" stroke="currentColor" stroke-width="1.5" stroke-linecap="round" stroke-linejoin="round"/>
</svg>
