<svg width="24" height="24" viewBox="0 0 24 24" fill="none" xmlns="http://www.w3.org/2000/svg">
<path d="M21.9996 11V12C21.9895 14.0183 21.3688 15.9864 20.2193 17.6454C19.0698 19.3044 17.4451 20.5767 15.5589 21.295C13.6728 22.0134 11.6134 22.1442 9.65144 21.6703C7.68953 21.1963 5.91696 20.1398 4.56676 18.6395C3.21656 17.1393 2.35193 15.2656 2.08653 13.2648C1.82113 11.264 2.1674 9.22969 3.0798 7.42935C3.99221 5.629 5.42804 4.14689 7.19855 3.17785C8.96905 2.20881 10.9913 1.7982 12.9996 2.00001M7.99958 14C7.99958 14 9.49958 16 11.9996 16C14.4996 16 15.9996 14 15.9996 14M8.99958 9.00001H9.00958M14.9996 9.00001H15.0096M15.9996 5.00001H21.9996M18.9996 2.00001V8.00001" stroke="currentColor" stroke-width="1.5" stroke-linecap="round" stroke-linejoin="round"/>
</svg>
