<svg width="24" height="24" viewBox="0 0 24 24" fill="none" xmlns="http://www.w3.org/2000/svg">
<path d="M14.625 6.94441V17.0553C14.625 17.4167 14.625 17.5974 14.6586 17.7477C14.7967 18.3647 15.339 18.8474 16.0332 18.9701C16.2023 19 16.4055 19 16.8121 19C17.2187 19 17.4228 19 17.5918 18.9701C18.286 18.8474 18.8286 18.3647 18.9667 17.7477C19 17.5987 19 17.4199 19 17.0648V6.93489C19 6.57983 19 6.40065 18.9667 6.25171C18.8286 5.63465 18.2856 5.15263 17.5914 5.02989C17.4224 5 17.2191 5 16.8125 5C16.4059 5 16.2023 5 16.0332 5.02989C15.339 5.15263 14.7967 5.63465 14.6586 6.25171C14.625 6.40197 14.625 6.58302 14.625 6.94441Z" stroke="currentColor" stroke-width="1.5" stroke-linecap="round" stroke-linejoin="round"/>
<path d="M5 6.94441V17.0553C5 17.4167 5 17.5974 5.03363 17.7477C5.17171 18.3647 5.71399 18.8474 6.4082 18.9701C6.57725 19 6.78054 19 7.18711 19C7.59368 19 7.79775 19 7.9668 18.9701C8.66101 18.8474 9.20359 18.3647 9.34167 17.7477C9.375 17.5987 9.375 17.4199 9.375 17.0648V6.93489C9.375 6.57983 9.375 6.40065 9.34167 6.25171C9.20359 5.63465 8.66062 5.15263 7.96641 5.02989C7.79736 5 7.59407 5 7.1875 5C6.78093 5 6.57725 5 6.4082 5.02989C5.71399 5.15263 5.17171 5.63465 5.03363 6.25171C5 6.40197 5 6.58302 5 6.94441Z" stroke="currentColor" stroke-width="1.5" stroke-linecap="round" stroke-linejoin="round"/>
</svg>
