<svg width="24" height="24" viewBox="0 0 24 24" fill="none" xmlns="http://www.w3.org/2000/svg">
<path d="M7.50031 8C7.77645 8 8.00031 7.77614 8.00031 7.5C8.00031 7.22386 7.77645 7 7.50031 7C7.22416 7 7.00031 7.22386 7.00031 7.5C7.00031 7.77614 7.22416 8 7.50031 8Z" fill="currentColor"/>
<path d="M12.5863 2.586C12.2113 2.2109 11.7027 2.00011 11.1723 2H4.00031C3.46987 2 2.96116 2.21071 2.58609 2.58579C2.21102 2.96086 2.00031 3.46957 2.00031 4V11.172C2.00042 11.7024 2.21121 12.211 2.58631 12.586L11.2903 21.29C11.7448 21.7416 12.3596 21.9951 13.0003 21.9951C13.6411 21.9951 14.2558 21.7416 14.7103 21.29L21.2903 14.71C21.742 14.2555 21.9954 13.6408 21.9954 13C21.9954 12.3592 21.742 11.7445 21.2903 11.29L12.5863 2.586Z" stroke="currentColor" stroke-width="1.5" stroke-linecap="round" stroke-linejoin="round"/>
<path d="M7.50031 8C7.77645 8 8.00031 7.77614 8.00031 7.5C8.00031 7.22386 7.77645 7 7.50031 7C7.22416 7 7.00031 7.22386 7.00031 7.5C7.00031 7.77614 7.22416 8 7.50031 8Z" stroke="currentColor" stroke-width="1.5" stroke-linecap="round" stroke-linejoin="round"/>
</svg>
