<svg width="24" height="24" viewBox="0 0 24 24" fill="none" xmlns="http://www.w3.org/2000/svg">
<path d="M9.99957 11V17M13.9996 11V17M18.9996 6V20C18.9996 20.5304 18.7889 21.0391 18.4138 21.4142C18.0387 21.7893 17.53 22 16.9996 22H6.99957C6.46914 22 5.96043 21.7893 5.58536 21.4142C5.21029 21.0391 4.99957 20.5304 4.99957 20V6M2.99957 6H20.9996M7.99957 6V4C7.99957 3.46957 8.21029 2.96086 8.58536 2.58579C8.96043 2.21071 9.46914 2 9.99957 2H13.9996C14.53 2 15.0387 2.21071 15.4138 2.58579C15.7889 2.96086 15.9996 3.46957 15.9996 4V6" stroke="currentColor" stroke-width="1.5" stroke-linecap="round" stroke-linejoin="round"/>
</svg>
