<svg width="24" height="24" viewBox="0 0 24 24" fill="none" xmlns="http://www.w3.org/2000/svg">
<path d="M14.0001 18V6C14.0001 5.46957 13.7894 4.96086 13.4143 4.58579C13.0393 4.21071 12.5306 4 12.0001 4H4.00012C3.46969 4 2.96098 4.21071 2.58591 4.58579C2.21084 4.96086 2.00012 5.46957 2.00012 6V17C2.00012 17.2652 2.10548 17.5196 2.29302 17.7071C2.48055 17.8946 2.73491 18 3.00012 18H5.00012M5.00012 18C5.00012 19.1046 5.89555 20 7.00012 20C8.10469 20 9.00012 19.1046 9.00012 18M5.00012 18C5.00012 16.8954 5.89555 16 7.00012 16C8.10469 16 9.00012 16.8954 9.00012 18M15.0001 18H9.00012M15.0001 18C15.0001 19.1046 15.8956 20 17.0001 20C18.1047 20 19.0001 19.1046 19.0001 18M15.0001 18C15.0001 16.8954 15.8956 16 17.0001 16C18.1047 16 19.0001 16.8954 19.0001 18M19.0001 18H21.0001C21.2653 18 21.5197 17.8946 21.7072 17.7071C21.8948 17.5196 22.0001 17.2652 22.0001 17V13.35C21.9997 13.1231 21.9221 12.903 21.7801 12.726L18.3001 8.376C18.2066 8.25888 18.0879 8.16428 17.9529 8.0992C17.8179 8.03412 17.67 8.00021 17.5201 8H14.0001" stroke="currentColor" stroke-width="1.5" stroke-linecap="round" stroke-linejoin="round"/>
</svg>
