<svg width="24" height="24" viewBox="0 0 24 24" fill="none" xmlns="http://www.w3.org/2000/svg">
<path d="M16.0005 21V19C16.0005 17.9391 15.5791 16.9217 14.8289 16.1716C14.0788 15.4214 13.0614 15 12.0005 15H6.00049C4.93962 15 3.92221 15.4214 3.17206 16.1716C2.42192 16.9217 2.00049 17.9391 2.00049 19V21M19.0005 8V14M22.0005 11H16.0005M13.0005 7C13.0005 9.20914 11.2096 11 9.00049 11C6.79135 11 5.00049 9.20914 5.00049 7C5.00049 4.79086 6.79135 3 9.00049 3C11.2096 3 13.0005 4.79086 13.0005 7Z" stroke="currentColor" stroke-width="1.5" stroke-linecap="round" stroke-linejoin="round"/>
</svg>
