<svg width="24" height="24" viewBox="0 0 24 24" fill="none" xmlns="http://www.w3.org/2000/svg">
<path d="M15.9992 21V19C15.9992 17.9391 15.5778 16.9217 14.8276 16.1716C14.0775 15.4214 13.0601 15 11.9992 15H5.99921C4.93834 15 3.92092 15.4214 3.17078 16.1716C2.42063 16.9217 1.99921 17.9391 1.99921 19V21M15.9992 3.128C16.857 3.35037 17.6166 3.85126 18.1589 4.55206C18.7012 5.25286 18.9954 6.11389 18.9954 7C18.9954 7.88611 18.7012 8.74714 18.1589 9.44794C17.6166 10.1487 16.857 10.6496 15.9992 10.872M21.9992 21V19C21.9985 18.1137 21.7036 17.2528 21.1606 16.5523C20.6176 15.8519 19.8573 15.3516 18.9992 15.13M12.9992 7C12.9992 9.20914 11.2083 11 8.99921 11C6.79007 11 4.99921 9.20914 4.99921 7C4.99921 4.79086 6.79007 3 8.99921 3C11.2083 3 12.9992 4.79086 12.9992 7Z" stroke="currentColor" stroke-width="1.5" stroke-linecap="round" stroke-linejoin="round"/>
</svg>
