<svg width="24" height="24" viewBox="0 0 24 24" fill="none" xmlns="http://www.w3.org/2000/svg">
<path d="M16.001 13L21.224 16.482C21.2993 16.5321 21.3867 16.5608 21.4771 16.5652C21.5674 16.5695 21.6572 16.5492 21.737 16.5065C21.8167 16.4639 21.8834 16.4003 21.9299 16.3228C21.9764 16.2452 22.0009 16.1564 22.001 16.066V7.87C22.001 7.78202 21.9778 7.6956 21.9338 7.61945C21.8897 7.5433 21.8263 7.48012 21.75 7.4363C21.6738 7.39248 21.5873 7.36956 21.4993 7.36985C21.4113 7.37015 21.325 7.39366 21.249 7.438L16.001 10.5M4.00098 6H14.001C15.1055 6 16.001 6.89543 16.001 8V16C16.001 17.1046 15.1055 18 14.001 18H4.00098C2.89641 18 2.00098 17.1046 2.00098 16V8C2.00098 6.89543 2.89641 6 4.00098 6Z" stroke="currentColor" stroke-width="1.5" stroke-linecap="round" stroke-linejoin="round"/>
</svg>
