<svg width="24" height="24" viewBox="0 0 24 24" fill="none" xmlns="http://www.w3.org/2000/svg">
<path d="M19.0002 7V4C19.0002 3.73478 18.8949 3.48043 18.7074 3.29289C18.5198 3.10536 18.2655 3 18.0002 3H5.00024C4.46981 3 3.9611 3.21071 3.58603 3.58579C3.21096 3.96086 3.00024 4.46957 3.00024 5M3.00024 5C3.00024 5.53043 3.21096 6.03914 3.58603 6.41421C3.9611 6.78929 4.46981 7 5.00024 7H20.0002C20.2655 7 20.5198 7.10536 20.7074 7.29289C20.8949 7.48043 21.0002 7.73478 21.0002 8V12M3.00024 5V19C3.00024 19.5304 3.21096 20.0391 3.58603 20.4142C3.9611 20.7893 4.46981 21 5.00024 21H20.0002C20.2655 21 20.5198 20.8946 20.7074 20.7071C20.8949 20.5196 21.0002 20.2652 21.0002 20V16M21.0002 12H18.0002C17.4698 12 16.9611 12.2107 16.586 12.5858C16.211 12.9609 16.0002 13.4696 16.0002 14C16.0002 14.5304 16.211 15.0391 16.586 15.4142C16.9611 15.7893 17.4698 16 18.0002 16H21.0002M21.0002 12C21.2655 12 21.5198 12.1054 21.7074 12.2929C21.8949 12.4804 22.0002 12.7348 22.0002 13V15C22.0002 15.2652 21.8949 15.5196 21.7074 15.7071C21.5198 15.8946 21.2655 16 21.0002 16" stroke="currentColor" stroke-width="1.5" stroke-linecap="round" stroke-linejoin="round"/>
</svg>
