<svg width="24" height="24" viewBox="0 0 24 24" fill="none" xmlns="http://www.w3.org/2000/svg">
<path d="M11.9993 9V13M11.9993 17H12.0093M21.7293 18L13.7293 4C13.5549 3.6922 13.3019 3.43619 12.9962 3.25807C12.6905 3.07995 12.3431 2.9861 11.9893 2.9861C11.6355 2.9861 11.288 3.07995 10.9824 3.25807C10.6767 3.43619 10.4237 3.6922 10.2493 4L2.24929 18C2.07297 18.3054 1.98052 18.6519 1.9813 19.0045C1.98208 19.3571 2.07607 19.7032 2.25373 20.0078C2.4314 20.3124 2.68644 20.5646 2.99298 20.7388C3.29953 20.9131 3.6467 21.0032 3.99929 21H19.9993C20.3502 20.9996 20.6948 20.907 20.9986 20.7313C21.3023 20.5556 21.5545 20.3031 21.7298 19.9991C21.9051 19.6951 21.9973 19.3504 21.9972 18.9995C21.9971 18.6486 21.9047 18.3039 21.7293 18Z" stroke="currentColor" stroke-width="1.5" stroke-linecap="round" stroke-linejoin="round"/>
</svg>
