<svg width="24" height="24" viewBox="0 0 24 24" fill="none" xmlns="http://www.w3.org/2000/svg">
<path d="M8.00031 3V6C8.00031 6.53043 7.78959 7.03914 7.41452 7.41421C7.03945 7.78929 6.53074 8 6.00031 8H3.00031M21.0003 8H18.0003C17.4699 8 16.9612 7.78929 16.5861 7.41421C16.211 7.03914 16.0003 6.53043 16.0003 6V3M3.00031 16H6.00031C6.53074 16 7.03945 16.2107 7.41452 16.5858C7.78959 16.9609 8.00031 17.4696 8.00031 18V21M16.0003 21V18C16.0003 17.4696 16.211 16.9609 16.5861 16.5858C16.9612 16.2107 17.4699 16 18.0003 16H21.0003" stroke="currentColor" stroke-width="1.5" stroke-linecap="round" stroke-linejoin="round"/>
</svg>
