<svg width="24" height="24" viewBox="0 0 24 24" fill="none" xmlns="http://www.w3.org/2000/svg">
<path d="M8.00079 3H5.00079C4.47036 3 3.96165 3.21071 3.58658 3.58579C3.21151 3.96086 3.00079 4.46957 3.00079 5V8M21.0008 8V5C21.0008 4.46957 20.7901 3.96086 20.415 3.58579C20.0399 3.21071 19.5312 3 19.0008 3H16.0008M3.00079 16V19C3.00079 19.5304 3.21151 20.0391 3.58658 20.4142C3.96165 20.7893 4.47036 21 5.00079 21H8.00079M16.0008 21H19.0008C19.5312 21 20.0399 20.7893 20.415 20.4142C20.7901 20.0391 21.0008 19.5304 21.0008 19V16" stroke="currentColor" stroke-width="1.5" stroke-linecap="round" stroke-linejoin="round"/>
</svg>
