<svg width="24" height="24" viewBox="0 0 24 24" fill="none" xmlns="http://www.w3.org/2000/svg">
<path d="M13.6586 22H17.9996C18.5301 22 19.0388 21.7893 19.4139 21.4142C19.7889 21.0391 19.9996 20.5304 19.9996 20V8M19.9996 8C20.0004 7.68311 19.9384 7.3692 19.8173 7.07639C19.6961 6.78358 19.5181 6.51767 19.2936 6.294L15.7056 2.706C15.482 2.48152 15.2161 2.30356 14.9233 2.18238C14.6304 2.06121 14.3165 1.99922 13.9996 2M19.9996 8H14.9996C14.7344 8 14.4801 7.89464 14.2925 7.70711C14.105 7.51957 13.9996 7.26522 13.9996 7V2M13.9996 2H5.99965C5.46922 2 4.96051 2.21071 4.58544 2.58579C4.21036 2.96086 3.99965 3.46957 3.99965 4V15.5M7.99965 12V11M7.99965 18V16M7.99965 18C6.89508 18 5.99965 18.8954 5.99965 20C5.99965 21.1046 6.89508 22 7.99965 22C9.10422 22 9.99965 21.1046 9.99965 20C9.99965 18.8954 9.10422 18 7.99965 18ZM7.99965 7V6" stroke="currentColor" stroke-width="1.5" stroke-linecap="round" stroke-linejoin="round"/>
</svg>
