<svg width="512" height="512" viewBox="0 0 512 512" xmlns="http://www.w3.org/2000/svg">
  <style>
    path, circle { fill: white; }
    @media (prefers-color-scheme: light) {
      path, circle { fill: #0A0A0A; }
    }
  </style>
  <g transform="translate(54.98, 24) scale(9.6726)">
    <path d="M20.7825 0L0 11.9887V35.9819L20.2447 47.6701L20.7825 47.9706L21.3202 47.6701L41.565 35.9819V11.9887L20.7825 0ZM39.0186 13.0009L34.1788 21.3835L25.1003 13.9024L31.5375 8.6831L39.0186 13.0009ZM20.7825 2.46733L29.5447 7.52852L23.2182 12.6688V12.4948C23.2182 11.8938 22.7279 11.3877 22.1111 11.3877H20.7825H19.4381C18.8371 11.3877 18.331 11.878 18.331 12.4948V12.6688L12.0045 7.52852L20.7825 2.46733ZM10.0275 8.6831L16.4489 13.9024L7.37035 21.3835L2.53059 13.0009L10.0275 8.6831ZM2.151 34.7482V16.607L17.8565 43.8109L2.151 34.7482ZM20.7825 44.6017L8.46167 23.2656L18.331 15.1361V15.1994C18.331 15.8004 18.8213 16.3065 19.4381 16.3065H20.7825H22.1269C22.7279 16.3065 23.234 15.8162 23.234 15.1994V15.1361L33.1033 23.2656L20.7825 44.6017ZM39.414 34.7482L23.7085 43.8109L39.414 16.607V34.7482Z"/>
    <circle cx="20.7825" cy="24.5784" r="1.7714"/>
    <circle cx="20.7825" cy="32.0436" r="1.7714"/>
  </g>
</svg>