<svg preserveAspectRatio="none" width="100%" height="100%" overflow="visible" style="display: block;" viewBox="0 0 48 48" fill="none" xmlns="http://www.w3.org/2000/svg">
<g id="Icon / Skip">
<path id="Vector 9" d="M6.92278 12.2531C6.83046 12.5959 7.03354 12.9486 7.37637 13.041L12.9631 14.5454C13.3059 14.6377 13.6586 14.4347 13.751 14.0918C13.8433 13.749 13.6402 13.3962 13.2974 13.3039L8.33143 11.9666L9.66872 7.00069C9.76104 6.65787 9.55796 6.30511 9.21514 6.21279C8.87231 6.12047 8.51955 6.32354 8.42723 6.66637L6.92278 12.2531ZM24.4619 6.40096C24.8149 6.36264 25.0699 6.04544 25.0316 5.69248C24.9933 5.33951 24.6761 5.08444 24.3231 5.12276L24.3925 5.76186L24.4619 6.40096ZM7.54353 12.4202L7.86426 12.9774C9.56798 11.9966 12.4558 10.4848 15.561 9.14973C18.6808 7.80837 21.958 6.67279 24.4619 6.40096L24.3925 5.76186L24.3231 5.12276C21.6184 5.41639 18.1942 6.61807 15.0531 7.96856C11.8975 9.32533 8.96515 10.8601 7.2228 11.8631L7.54353 12.4202Z" fill="var(--stroke-0, white)"/>
<path id="Vector 10" d="M28.272 44.3415C27.9624 42.9145 26.441 39.6903 22.832 38.2093C19.223 36.7282 19.7155 32.5482 21.7918 28.6059M21.7918 28.6059L22.832 34.1596M21.7918 28.6059L19.0262 18.53C18.769 17.5931 19.3524 16.6327 20.3024 16.4291C21.1489 16.2477 21.9957 16.735 22.2642 17.558L25.1032 26.2611C25.4709 25.5599 26.6194 24.4608 28.272 25.6741C28.9606 24.9566 30.641 23.9521 31.8543 25.6741C32.9142 24.6957 35.1809 24.2162 35.7679 30.1259" stroke="var(--stroke-0, white)" stroke-width="1.28571" stroke-linecap="round" stroke-linejoin="round"/>
</g>
</svg>
