<svg preserveAspectRatio="none" width="100%" height="100%" overflow="visible" style="display: block;" viewBox="0 0 48 48" fill="none" xmlns="http://www.w3.org/2000/svg">
<g id="Icon / Like">
<path id="Vector 11" d="M11.1782 10.94C10.8534 11.0832 10.7061 11.4627 10.8492 11.7876C10.9924 12.1124 11.3719 12.2597 11.6968 12.1165L11.4375 11.5283L11.1782 10.94ZM28.4657 6.82118C28.6685 6.52972 28.5965 6.12909 28.3051 5.92636L23.5554 2.62261C23.2639 2.41987 22.8633 2.49181 22.6605 2.78327C22.4578 3.07474 22.5297 3.47537 22.8212 3.6781L27.0432 6.61476L24.1065 10.8367C23.9038 11.1282 23.9757 11.5288 24.2672 11.7316C24.5586 11.9343 24.9593 11.8624 25.162 11.5709L28.4657 6.82118ZM11.4375 11.5283L11.6968 12.1165C15.7718 10.3206 24.3309 7.75488 28.0516 7.08684L27.938 6.4541L27.8244 5.82136C24.0042 6.50726 15.3472 9.10264 11.1782 10.94L11.4375 11.5283Z" fill="var(--stroke-0, white)"/>
<path id="Vector 12" d="M12.9635 45.2347C13.2763 43.7928 14.8136 40.5349 18.4603 39.0383C22.1071 37.5418 21.6094 33.3181 19.5114 29.3346M19.5114 29.3346L18.4603 34.9463M19.5114 29.3346L22.3059 19.1533C22.5658 18.2066 21.9762 17.2362 21.0163 17.0305C20.161 16.8472 19.3053 17.3396 19.0341 18.1713L16.1654 26.9653C15.7939 26.2568 14.6333 25.1462 12.9635 26.3721C12.2677 25.6471 10.5697 24.6321 9.34375 26.3721C8.27271 25.3835 5.98235 24.899 5.38916 30.8705" stroke="var(--stroke-0, white)" stroke-width="1.28571" stroke-linecap="round" stroke-linejoin="round"/>
</g>
</svg>
